<svg width="451" height="311" viewBox="0 0 451 311" fill="none" xmlns="http://www.w3.org/2000/svg">
<g filter="url(#filter0_di_794_3593)">
<path d="M250 67.5C250 31.8776 217.093 3 176.5 3C135.907 3 103 31.8776 103 67.5C103 103.122 135.907 132 176.5 132C217.093 132 250 103.122 250 67.5Z" fill="#BFDBFE"/>
<path d="M103.5 67.5C103.5 32.2131 136.12 3.5 176.5 3.5C216.88 3.5 249.5 32.2131 249.5 67.5C249.5 102.787 216.88 131.5 176.5 131.5C136.12 131.5 103.5 102.787 103.5 67.5Z" stroke="white" stroke-opacity="0.5"/>
<path d="M359 64.5C359 28.8776 325.198 0 283.5 0C241.803 0 208 28.8776 208 64.5C208 100.122 241.803 129 283.5 129C325.198 129 359 100.122 359 64.5Z" fill="#BFDBFE"/>
<path d="M208.5 64.5C208.5 29.2247 242.002 0.5 283.5 0.5C324.998 0.5 358.5 29.2247 358.5 64.5C358.5 99.7753 324.998 128.5 283.5 128.5C242.002 128.5 208.5 99.7753 208.5 64.5Z" stroke="white" stroke-opacity="0.5"/>
<path d="M222 157.5C222 119.116 189.093 88 148.5 88C107.907 88 75 119.116 75 157.5C75 195.884 107.907 227 148.5 227C189.093 227 222 195.884 222 157.5Z" fill="#BFDBFE"/>
<path d="M75.5 157.5C75.5 119.418 108.156 88.5 148.5 88.5C188.844 88.5 221.5 119.418 221.5 157.5C221.5 195.582 188.844 226.5 148.5 226.5C108.156 226.5 75.5 195.582 75.5 157.5Z" stroke="white" stroke-opacity="0.5"/>
<path d="M272 228.5C272 191.773 239.093 162 198.5 162C157.907 162 125 191.773 125 228.5C125 265.227 157.907 295 198.5 295C239.093 295 272 265.227 272 228.5Z" fill="#BFDBFE"/>
<path d="M125.5 228.5C125.5 192.095 158.135 162.5 198.5 162.5C238.865 162.5 271.5 192.095 271.5 228.5C271.5 264.905 238.865 294.5 198.5 294.5C158.135 294.5 125.5 264.905 125.5 228.5Z" stroke="white" stroke-opacity="0.5"/>
<path d="M355 222.5C355 186.878 322.093 158 281.5 158C240.907 158 208 186.878 208 222.5C208 258.122 240.907 287 281.5 287C322.093 287 355 258.122 355 222.5Z" fill="#BFDBFE"/>
<path d="M208.5 222.5C208.5 187.213 241.12 158.5 281.5 158.5C321.88 158.5 354.5 187.213 354.5 222.5C354.5 257.787 321.88 286.5 281.5 286.5C241.12 286.5 208.5 257.787 208.5 222.5Z" stroke="white" stroke-opacity="0.5"/>
<path d="M394 149C394 111.445 361.093 81 320.5 81C279.907 81 247 111.445 247 149C247 186.555 279.907 217 320.5 217C361.093 217 394 186.555 394 149Z" fill="#BFDBFE"/>
<path d="M247.5 149C247.5 111.757 280.146 81.5 320.5 81.5C360.854 81.5 393.5 111.757 393.5 149C393.5 186.243 360.854 216.5 320.5 216.5C280.146 216.5 247.5 186.243 247.5 149Z" stroke="white" stroke-opacity="0.5"/>
<path d="M306 145.5C306 109.878 273.093 81 232.5 81C191.907 81 159 109.878 159 145.5C159 181.122 191.907 210 232.5 210C273.093 210 306 181.122 306 145.5Z" fill="#BFDBFE"/>
<path d="M353 214C353 178.101 301.96 149 239 149C176.04 149 125 178.101 125 214C125 249.899 176.04 279 239 279C301.96 279 353 249.899 353 214Z" fill="#BFDBFE"/>
<path d="M353 90C353 52.4446 299.05 22 232.5 22C165.95 22 112 52.4446 112 90C112 127.555 165.95 158 232.5 158C299.05 158 353 127.555 353 90Z" fill="#BFDBFE"/>
<path d="M236 270C307.797 270 366 215.603 366 148.5C366 81.3974 307.797 27 236 27C164.203 27 106 81.3974 106 148.5C106 215.603 164.203 270 236 270Z" fill="url(#paint0_radial_794_3593)"/>
<path d="M193 122C198.523 122 203 117.523 203 112C203 106.477 198.523 102 193 102C187.477 102 183 106.477 183 112C183 117.523 187.477 122 193 122Z" fill="url(#paint1_linear_794_3593)"/>
<path d="M217 144C218.5 155 253 154.5 255.5 144.5" stroke="url(#paint2_linear_794_3593)" stroke-width="3" stroke-linecap="round"/>
<path d="M273 122C278.523 122 283 117.523 283 112C283 106.477 278.523 102 273 102C267.477 102 263 106.477 263 112C263 117.523 267.477 122 273 122Z" fill="url(#paint3_linear_794_3593)"/>
</g>
<g filter="url(#filter2_di_794_3593)">
<path d="M414.037 252.059C414.037 244.112 406.695 237.67 397.639 237.67C388.583 237.67 381.242 244.112 381.242 252.059C381.242 260.005 388.583 266.447 397.639 266.447C406.695 266.447 414.037 260.005 414.037 252.059Z" fill="#BFDBFE"/>
<path d="M381.742 252.059C381.742 244.448 388.797 238.17 397.64 238.17C406.483 238.17 413.537 244.448 413.537 252.059C413.537 259.67 406.483 265.947 397.64 265.947C388.796 265.947 381.742 259.67 381.742 252.059Z" stroke="white" stroke-opacity="0.5"/>
<path d="M438.359 251.389C438.359 243.442 430.818 237 421.515 237C412.213 237 404.672 243.442 404.672 251.389C404.672 259.335 412.213 265.777 421.515 265.777C430.818 265.777 438.359 259.335 438.359 251.389Z" fill="#BFDBFE"/>
<path d="M405.172 251.389C405.172 243.789 412.413 237.5 421.516 237.5C430.618 237.5 437.858 243.789 437.858 251.389C437.858 258.988 430.618 265.277 421.516 265.277C412.413 265.277 405.172 258.988 405.172 251.389Z" stroke="white" stroke-opacity="0.5"/>
<path d="M407.794 272.135C407.794 263.572 400.453 256.631 391.397 256.631C382.341 256.631 375 263.572 375 272.135C375 280.697 382.341 287.639 391.397 287.639C400.453 287.639 407.794 280.697 407.794 272.135Z" fill="#BFDBFE"/>
<path d="M375.5 272.135C375.5 263.874 382.591 257.131 391.397 257.131C400.204 257.131 407.295 263.875 407.295 272.135C407.295 280.395 400.204 287.139 391.397 287.139C382.591 287.139 375.5 280.395 375.5 272.135Z" stroke="white" stroke-opacity="0.5"/>
<path d="M418.951 287.975C418.951 279.782 411.609 273.14 402.553 273.14C393.498 273.14 386.156 279.782 386.156 287.975C386.156 296.168 393.498 302.81 402.553 302.81C411.609 302.81 418.951 296.168 418.951 287.975Z" fill="#BFDBFE"/>
<path d="M386.656 287.975C386.656 280.104 393.726 273.641 402.554 273.641C411.382 273.641 418.451 280.104 418.451 287.975C418.451 295.845 411.382 302.309 402.554 302.31C393.726 302.31 386.656 295.845 386.656 287.975Z" stroke="white" stroke-opacity="0.5"/>
<path d="M437.466 286.636C437.466 278.689 430.125 272.248 421.069 272.248C412.013 272.248 404.672 278.689 404.672 286.636C404.672 294.582 412.013 301.024 421.069 301.024C430.125 301.024 437.466 294.582 437.466 286.636Z" fill="#BFDBFE"/>
<path d="M405.172 286.636C405.172 279.025 412.226 272.747 421.069 272.747C429.912 272.747 436.967 279.025 436.967 286.636C436.967 294.247 429.912 300.524 421.069 300.524C412.226 300.524 405.172 294.247 405.172 286.636Z" stroke="white" stroke-opacity="0.5"/>
<path d="M446.162 270.241C446.162 261.863 438.82 255.072 429.764 255.072C420.708 255.072 413.367 261.863 413.367 270.241C413.367 278.619 420.708 285.41 429.764 285.41C438.82 285.41 446.162 278.619 446.162 270.241Z" fill="#BFDBFE"/>
<path d="M413.867 270.241C413.867 262.176 420.947 255.571 429.765 255.571C438.582 255.571 445.662 262.176 445.662 270.241C445.662 278.307 438.582 284.91 429.765 284.91C420.948 284.91 413.867 278.307 413.867 270.241Z" stroke="white" stroke-opacity="0.5"/>
<path d="M426.544 269.458C426.544 261.512 419.203 255.07 410.147 255.07C401.091 255.07 393.75 261.512 393.75 269.458C393.75 277.405 401.091 283.847 410.147 283.847C419.203 283.847 426.544 277.405 426.544 269.458Z" fill="#BFDBFE"/>
<path d="M437 284.5C437 276.492 425.583 270 411.5 270C397.417 270 386 276.492 386 284.5C386 292.508 397.417 299 411.5 299C425.583 299 437 292.508 437 284.5Z" fill="#BFDBFE"/>
<path d="M437.015 257.078C437.015 248.7 424.979 241.909 410.133 241.909C395.286 241.909 383.25 248.7 383.25 257.078C383.25 265.456 395.286 272.247 410.133 272.247C424.979 272.247 437.015 265.456 437.015 257.078Z" fill="#BFDBFE"/>
<path d="M410.924 297.233C426.941 297.233 439.926 285.098 439.926 270.129C439.926 255.16 426.941 243.025 410.924 243.025C394.906 243.025 381.922 255.16 381.922 270.129C381.922 285.098 394.906 297.233 410.924 297.233Z" fill="url(#paint4_radial_794_3593)"/>
</g>
<g filter="url(#filter3_di_794_3593)">
<path d="M43.0367 47.0578C43.0367 39.1113 35.6954 32.6694 26.6394 32.6694C17.5835 32.6694 10.2422 39.1113 10.2422 47.0578C10.2422 55.0044 17.5835 61.4463 26.6394 61.4463C35.6954 61.4463 43.0367 55.0044 43.0367 47.0578Z" fill="#BFDBFE"/>
<path d="M10.7422 47.0576C10.7423 39.4467 17.7965 33.1689 26.6396 33.1689C35.4826 33.1691 42.537 39.4468 42.5371 47.0576C42.5371 54.6685 35.4827 60.9462 26.6396 60.9463C17.7965 60.9463 10.7422 54.6686 10.7422 47.0576Z" stroke="white" stroke-opacity="0.5"/>
<path d="M67.3587 46.3879C67.3587 38.4414 59.8177 31.9995 50.5153 31.9995C41.2129 31.9995 33.6719 38.4414 33.6719 46.3879C33.6719 54.3344 41.2129 60.7764 50.5153 60.7764C59.8177 60.7764 67.3587 54.3344 67.3587 46.3879Z" fill="#BFDBFE"/>
<path d="M34.1719 46.3877C34.172 38.7884 41.4127 32.499 50.5156 32.499C59.6184 32.4992 66.8583 38.7885 66.8584 46.3877C66.8584 53.987 59.6185 60.2762 50.5156 60.2764C41.4126 60.2764 34.1719 53.9871 34.1719 46.3877Z" stroke="white" stroke-opacity="0.5"/>
<path d="M36.7945 67.1339C36.7945 58.5713 29.4532 51.63 20.3972 51.63C11.3413 51.63 4 58.5713 4 67.1339C4 75.6964 11.3413 82.6377 20.3972 82.6377C29.4532 82.6377 36.7945 75.6964 36.7945 67.1339Z" fill="#BFDBFE"/>
<path d="M4.5 67.1338C4.50004 58.8735 11.5909 52.1299 20.3975 52.1299C29.2039 52.13 36.2949 58.8735 36.2949 67.1338C36.2949 75.3941 29.2039 82.1376 20.3975 82.1377C11.5909 82.1377 4.5 75.3942 4.5 67.1338Z" stroke="white" stroke-opacity="0.5"/>
<path d="M47.9507 82.974C47.9507 74.7811 40.6094 68.1394 31.5535 68.1394C22.4975 68.1394 15.1563 74.7811 15.1563 82.974C15.1562 91.1669 22.4975 97.8086 31.5535 97.8086C40.6094 97.8086 47.9507 91.1669 47.9507 82.974Z" fill="#BFDBFE"/>
<path d="M15.6562 82.9736C15.6565 75.1029 22.7258 68.6396 31.5537 68.6396C40.3816 68.6398 47.451 75.103 47.4512 82.9736C47.4512 90.8444 40.3817 97.3085 31.5537 97.3086C22.7256 97.3086 15.6562 90.8445 15.6562 82.9736Z" stroke="white" stroke-opacity="0.5"/>
<path d="M66.4664 81.635C66.4664 73.6885 59.1251 67.2465 50.0691 67.2465C41.0132 67.2465 33.6719 73.6885 33.6719 81.635C33.6719 89.5815 41.0132 96.0234 50.0691 96.0234C59.1251 96.0234 66.4664 89.5815 66.4664 81.635Z" fill="#BFDBFE"/>
<path d="M34.1719 81.6348C34.172 74.0239 41.2262 67.7461 50.0693 67.7461C58.9123 67.7462 65.9667 74.0239 65.9668 81.6348C65.9668 89.2457 58.9124 95.5233 50.0693 95.5234C41.2261 95.5234 34.1719 89.2458 34.1719 81.6348Z" stroke="white" stroke-opacity="0.5"/>
<path d="M75.1617 65.24C75.1617 56.8622 67.8204 50.0707 58.7644 50.0707C49.7085 50.0707 42.3672 56.8622 42.3672 65.24C42.3672 73.6177 49.7085 80.4092 58.7644 80.4092C67.8204 80.4092 75.1617 73.6177 75.1617 65.24Z" fill="#BFDBFE"/>
<path d="M42.8672 65.2402C42.8672 57.1746 49.9475 50.5703 58.7646 50.5703C67.5817 50.5704 74.6621 57.1747 74.6621 65.2402C74.6619 73.3057 67.5816 79.9091 58.7646 79.9092C49.9476 79.9092 42.8673 73.3058 42.8672 65.2402Z" stroke="white" stroke-opacity="0.5"/>
<path d="M55.5445 64.4573C55.5445 56.5107 48.2032 50.0688 39.1472 50.0688C30.0913 50.0688 22.75 56.5107 22.75 64.4573C22.75 72.4038 30.0913 78.8457 39.1472 78.8457C48.2032 78.8457 55.5445 72.4038 55.5445 64.4573Z" fill="#BFDBFE"/>
<path d="M66.0211 79.7373C66.0211 71.7292 54.6347 65.2373 40.5887 65.2373C26.5427 65.2373 15.1563 71.7292 15.1562 79.7373C15.1562 87.7454 26.5427 94.2373 40.5887 94.2373C54.6347 94.2373 66.0211 87.7454 66.0211 79.7373Z" fill="#BFDBFE"/>
<path d="M66.0151 52.0769C66.0151 43.6991 53.9794 36.9077 39.1325 36.9077C24.2857 36.9077 12.25 43.6991 12.25 52.0769C12.25 60.4546 24.2857 67.2461 39.1325 67.2461C53.9794 67.2461 66.0151 60.4546 66.0151 52.0769Z" fill="#BFDBFE"/>
<path d="M39.9238 92.2321C55.9411 92.2321 68.9257 80.0973 68.9257 65.1282C68.9257 50.1592 55.9411 38.0244 39.9238 38.0244C23.9065 38.0244 10.9219 50.1592 10.9219 65.1282C10.9219 80.0973 23.9065 92.2321 39.9238 92.2321Z" fill="url(#paint5_radial_794_3593)"/>
</g>
<defs>
<filter id="filter0_di_794_3593" x="71" y="0" width="327" height="303" filterUnits="userSpaceOnUse" color-interpolation-filters="sRGB">
<feFlood flood-opacity="0" result="BackgroundImageFix"/>
<feColorMatrix in="SourceAlpha" type="matrix" values="0 0 0 0 0 0 0 0 0 0 0 0 0 0 0 0 0 0 127 0" result="hardAlpha"/>
<feOffset dy="4"/>
<feGaussianBlur stdDeviation="2"/>
<feComposite in2="hardAlpha" operator="out"/>
<feColorMatrix type="matrix" values="0 0 0 0 0.521569 0 0 0 0 0.537255 0 0 0 0 0.54902 0 0 0 0.25 0"/>
<feBlend mode="normal" in2="BackgroundImageFix" result="effect1_dropShadow_794_3593"/>
<feBlend mode="normal" in="SourceGraphic" in2="BackgroundImageFix" result="shape"/>
<feColorMatrix in="SourceAlpha" type="matrix" values="0 0 0 0 0 0 0 0 0 0 0 0 0 0 0 0 0 0 127 0" result="hardAlpha"/>
<feOffset dy="4"/>
<feGaussianBlur stdDeviation="2"/>
<feComposite in2="hardAlpha" operator="arithmetic" k2="-1" k3="1"/>
<feColorMatrix type="matrix" values="0 0 0 0 0.690196 0 0 0 0 0.741176 0 0 0 0 0.780392 0 0 0 0.25 0"/>
<feBlend mode="normal" in2="shape" result="effect2_innerShadow_794_3593"/>
<feBlend mode="normal" in="effect2_innerShadow_794_3593" in2="effect1_dropShadow_794_3593" result="effect2_innerShadow_794_3593"/>
</filter>
<filter id="filter2_di_794_3593" x="371" y="237" width="79.1641" height="73.8096" filterUnits="userSpaceOnUse" color-interpolation-filters="sRGB">
<feFlood flood-opacity="0" result="BackgroundImageFix"/>
<feColorMatrix in="SourceAlpha" type="matrix" values="0 0 0 0 0 0 0 0 0 0 0 0 0 0 0 0 0 0 127 0" result="hardAlpha"/>
<feOffset dy="4"/>
<feGaussianBlur stdDeviation="2"/>
<feComposite in2="hardAlpha" operator="out"/>
<feColorMatrix type="matrix" values="0 0 0 0 0.520775 0 0 0 0 0.53761 0 0 0 0 0.549636 0 0 0 0.25 0"/>
<feBlend mode="normal" in2="BackgroundImageFix" result="effect1_dropShadow_794_3593"/>
<feBlend mode="normal" in="SourceGraphic" in2="BackgroundImageFix" result="shape"/>
<feColorMatrix in="SourceAlpha" type="matrix" values="0 0 0 0 0 0 0 0 0 0 0 0 0 0 0 0 0 0 127 0" result="hardAlpha"/>
<feOffset dy="4"/>
<feGaussianBlur stdDeviation="2"/>
<feComposite in2="hardAlpha" operator="arithmetic" k2="-1" k3="1"/>
<feColorMatrix type="matrix" values="0 0 0 0 0.691372 0 0 0 0 0.741526 0 0 0 0 0.779879 0 0 0 0.25 0"/>
<feBlend mode="normal" in2="shape" result="effect2_innerShadow_794_3593"/>
<feBlend mode="normal" in="effect2_innerShadow_794_3593" in2="effect1_dropShadow_794_3593" result="effect2_innerShadow_794_3593"/>
</filter>
<filter id="filter3_di_794_3593" x="0" y="31.999" width="79.1641" height="73.8096" filterUnits="userSpaceOnUse" color-interpolation-filters="sRGB">
<feFlood flood-opacity="0" result="BackgroundImageFix"/>
<feColorMatrix in="SourceAlpha" type="matrix" values="0 0 0 0 0 0 0 0 0 0 0 0 0 0 0 0 0 0 127 0" result="hardAlpha"/>
<feOffset dy="4"/>
<feGaussianBlur stdDeviation="2"/>
<feComposite in2="hardAlpha" operator="out"/>
<feColorMatrix type="matrix" values="0 0 0 0 0.521569 0 0 0 0 0.537255 0 0 0 0 0.54902 0 0 0 0.25 0"/>
<feBlend mode="normal" in2="BackgroundImageFix" result="effect1_dropShadow_794_3593"/>
<feBlend mode="normal" in="SourceGraphic" in2="BackgroundImageFix" result="shape"/>
<feColorMatrix in="SourceAlpha" type="matrix" values="0 0 0 0 0 0 0 0 0 0 0 0 0 0 0 0 0 0 127 0" result="hardAlpha"/>
<feOffset dy="4"/>
<feGaussianBlur stdDeviation="2"/>
<feComposite in2="hardAlpha" operator="arithmetic" k2="-1" k3="1"/>
<feColorMatrix type="matrix" values="0 0 0 0 0.690196 0 0 0 0 0.741176 0 0 0 0 0.780392 0 0 0 0.25 0"/>
<feBlend mode="normal" in2="shape" result="effect2_innerShadow_794_3593"/>
<feBlend mode="normal" in="effect2_innerShadow_794_3593" in2="effect1_dropShadow_794_3593" result="effect2_innerShadow_794_3593"/>
</filter>
<radialGradient id="paint0_radial_794_3593" cx="0" cy="0" r="1" gradientUnits="userSpaceOnUse" gradientTransform="translate(236 148.5) scale(130 121.5)">
<stop stop-color="white" stop-opacity="0.6"/>
<stop offset="1" stop-color="white" stop-opacity="0"/>
</radialGradient>
<linearGradient id="paint1_linear_794_3593" x1="193" y1="102" x2="193" y2="122" gradientUnits="userSpaceOnUse">
<stop stop-color="#7B8693"/>
<stop offset="1" stop-color="#656B7C"/>
</linearGradient>
<linearGradient id="paint2_linear_794_3593" x1="236" y1="139.5" x2="236" y2="154.929" gradientUnits="userSpaceOnUse">
<stop stop-color="#656B7C"/>
<stop offset="1" stop-color="#7B8693"/>
</linearGradient>
<linearGradient id="paint3_linear_794_3593" x1="273" y1="102" x2="273" y2="122" gradientUnits="userSpaceOnUse">
<stop stop-color="#7B8693"/>
<stop offset="1" stop-color="#656B7C"/>
</linearGradient>
<radialGradient id="paint4_radial_794_3593" cx="0" cy="0" r="1" gradientUnits="userSpaceOnUse" gradientTransform="translate(410.924 270.129) scale(29.0019 27.1038)">
<stop stop-color="white" stop-opacity="0.6"/>
<stop offset="1" stop-color="white" stop-opacity="0"/>
</radialGradient>
<radialGradient id="paint5_radial_794_3593" cx="0" cy="0" r="1" gradientUnits="userSpaceOnUse" gradientTransform="translate(39.9238 65.1282) scale(29.0019 27.1038)">
<stop stop-color="white" stop-opacity="0.6"/>
<stop offset="1" stop-color="white" stop-opacity="0"/>
</radialGradient>
</defs>
</svg>
