<svg width="800" height="800" viewBox="0 0 800 800" fill="none" xmlns="http://www.w3.org/2000/svg">
<g clip-path="url(#clip0_971_3619)">
<path d="M448 577.334C437.333 580.001 421.333 585.333 401.334 585.333C365.334 585.333 330.667 576.001 301.333 556C271.999 536 249.334 510.666 233.333 478.666L62.6663 180L50.6665 200C17.3326 260 0 326.667 0 400C0 500 33.3339 588.001 97.333 662.667C161.334 736 244 781.334 340 795.999L349.333 797.332L484 566.665L448 577.334ZM334.666 766.667C249.333 752 175.999 710.668 117.333 644C57.332 574.666 26.6668 493.333 26.6668 400C26.6668 339.999 38.6667 284 62.6663 234.666L206.666 490.666C223.998 525.333 249.333 554.667 283.999 577.332C318.666 598.666 357.333 610.666 398.666 610.666C409.333 610.666 418.666 609.333 426.666 607.999L334.666 766.667Z" fill="white"/>
<path d="M219.996 350.667C229.329 310.668 251.996 277.334 286.663 250.667C318.662 225.333 355.996 213.333 399.996 213.333H754.663L742.663 193.333C709.329 136 662.662 90.6659 598.663 53.3337C538.662 17.3326 471.996 0 399.996 0C338.662 0 278.663 13.3326 225.329 39.9994C167.996 67.9991 118.662 108 83.9968 154.667L78.6641 161.334L211.997 379.999L219.996 350.667ZM110.664 163.999C142.663 122.665 185.33 89.3332 237.331 63.9991C286.664 38.6651 341.331 26.6652 399.997 26.6652C466.663 26.6652 529.33 43.9978 583.996 77.3317C637.33 107.999 675.996 143.998 706.663 187.999H398.663C349.329 187.999 306.662 201.332 269.33 230.666C238.663 254.665 215.997 282.665 202.664 315.999L110.664 163.999Z" fill="white"/>
<path d="M770.67 249.332L766.67 241.332H501.336L524.003 263.999C564.002 303.998 585.336 351.999 585.336 399.999C585.336 438.665 574.669 474.665 552.002 506.666L381.336 799.999H404.003C513.336 798.667 606.669 758.666 684.002 681.332C761.335 603.999 800.002 509.333 800.002 399.999C800.004 359.999 794.669 302.666 770.67 249.332ZM665.337 662.665C598.671 729.332 520.003 765.333 428.004 771.998L573.338 521.331C598.672 483.997 610.672 443.998 610.672 399.999C610.672 353.332 594.672 307.998 562.673 267.999H749.339C769.339 314.665 773.338 365.332 773.338 399.999C773.337 501.332 737.336 589.332 665.337 662.665Z" fill="white"/>
<path d="M240 399.999C240 486.665 313.333 559.999 399.999 559.999C486.665 559.999 559.999 486.665 559.999 399.999C559.999 313.333 486.665 240 399.999 240C313.333 240 240 313.333 240 399.999ZM399.999 266.667C472 266.667 533.332 328 533.332 399.999C533.332 471.998 471.998 533.332 399.999 533.332C328 533.332 266.667 471.998 266.667 399.999C266.667 328 328 266.667 399.999 266.667Z" fill="white"/>
</g>
<defs>
<clipPath id="clip0_971_3619">
<rect width="800" height="800" fill="white"/>
</clipPath>
</defs>
</svg>
