<svg width="1939" height="308" viewBox="0 0 1939 308" fill="none" xmlns="http://www.w3.org/2000/svg">
<g filter="url(#filter0_di_946_3934)">
<path d="M179 67.5C179 31.8776 146.093 3 105.5 3C64.9071 3 32 31.8776 32 67.5C32 103.122 64.9071 132 105.5 132C146.093 132 179 103.122 179 67.5Z" fill="#BFDBFE"/>
<path d="M32.5 67.5C32.5 32.2131 65.1199 3.5 105.5 3.5C145.88 3.5 178.5 32.2131 178.5 67.5C178.5 102.787 145.88 131.5 105.5 131.5C65.1199 131.5 32.5 102.787 32.5 67.5Z" stroke="white" stroke-opacity="0.5"/>
<path d="M288 64.5C288 28.8776 254.198 0 212.5 0C170.803 0 137 28.8776 137 64.5C137 100.122 170.803 129 212.5 129C254.198 129 288 100.122 288 64.5Z" fill="#BFDBFE"/>
<path d="M137.5 64.5C137.5 29.2247 171.002 0.5 212.5 0.5C253.998 0.5 287.5 29.2247 287.5 64.5C287.5 99.7753 253.998 128.5 212.5 128.5C171.002 128.5 137.5 99.7753 137.5 64.5Z" stroke="white" stroke-opacity="0.5"/>
<path d="M151 157.5C151 119.116 118.093 88 77.5 88C36.9071 88 4 119.116 4 157.5C4 195.884 36.9071 227 77.5 227C118.093 227 151 195.884 151 157.5Z" fill="#BFDBFE"/>
<path d="M4.5 157.5C4.5 119.418 37.1565 88.5 77.5 88.5C117.844 88.5 150.5 119.418 150.5 157.5C150.5 195.582 117.844 226.5 77.5 226.5C37.1565 226.5 4.5 195.582 4.5 157.5Z" stroke="white" stroke-opacity="0.5"/>
<path d="M201 228.5C201 191.773 168.093 162 127.5 162C86.9071 162 54 191.773 54 228.5C54 265.227 86.9071 295 127.5 295C168.093 295 201 265.227 201 228.5Z" fill="#BFDBFE"/>
<path d="M54.5 228.5C54.5 192.095 87.135 162.5 127.5 162.5C167.865 162.5 200.5 192.095 200.5 228.5C200.5 264.905 167.865 294.5 127.5 294.5C87.135 294.5 54.5 264.905 54.5 228.5Z" stroke="white" stroke-opacity="0.5"/>
<path d="M284 222.5C284 186.878 251.093 158 210.5 158C169.907 158 137 186.878 137 222.5C137 258.122 169.907 287 210.5 287C251.093 287 284 258.122 284 222.5Z" fill="#BFDBFE"/>
<path d="M137.5 222.5C137.5 187.213 170.12 158.5 210.5 158.5C250.88 158.5 283.5 187.213 283.5 222.5C283.5 257.787 250.88 286.5 210.5 286.5C170.12 286.5 137.5 257.787 137.5 222.5Z" stroke="white" stroke-opacity="0.5"/>
<path d="M323 149C323 111.445 290.093 81 249.5 81C208.907 81 176 111.445 176 149C176 186.555 208.907 217 249.5 217C290.093 217 323 186.555 323 149Z" fill="#BFDBFE"/>
<path d="M176.5 149C176.5 111.757 209.146 81.5 249.5 81.5C289.854 81.5 322.5 111.757 322.5 149C322.5 186.243 289.854 216.5 249.5 216.5C209.146 216.5 176.5 186.243 176.5 149Z" stroke="white" stroke-opacity="0.5"/>
<path d="M235 145.5C235 109.878 202.093 81 161.5 81C120.907 81 88 109.878 88 145.5C88 181.122 120.907 210 161.5 210C202.093 210 235 181.122 235 145.5Z" fill="#BFDBFE"/>
<path d="M282 214C282 178.101 230.96 149 168 149C105.04 149 54 178.101 54 214C54 249.899 105.04 279 168 279C230.96 279 282 249.899 282 214Z" fill="#BFDBFE"/>
<path d="M282 90C282 52.4446 228.05 22 161.5 22C94.9497 22 41 52.4446 41 90C41 127.555 94.9497 158 161.5 158C228.05 158 282 127.555 282 90Z" fill="#BFDBFE"/>
<path d="M165 270C236.797 270 295 215.603 295 148.5C295 81.3974 236.797 27 165 27C93.203 27 35 81.3974 35 148.5C35 215.603 93.203 270 165 270Z" fill="url(#paint0_radial_946_3934)"/>
<path d="M115.19 109.379C123.026 109.379 129.379 103.026 129.379 95.1895C129.379 87.3529 123.026 81 115.19 81C107.353 81 101 87.3529 101 95.1895C101 103.026 107.353 109.379 115.19 109.379Z" fill="url(#paint1_linear_946_3934)"/>
<path d="M125 141C128 162.662 197 161.677 202 141.985" stroke="url(#paint2_linear_946_3934)" stroke-width="3" stroke-linecap="round"/>
<path d="M213.572 109.379C221.409 109.379 227.762 103.026 227.762 95.1895C227.762 87.3529 221.409 81 213.572 81C205.736 81 199.383 87.3529 199.383 95.1895C199.383 103.026 205.736 109.379 213.572 109.379Z" fill="url(#paint3_linear_946_3934)"/>
</g>
<path d="M441.672 239C440.122 239 438.938 238.089 438.117 236.266C437.388 234.443 437.023 233.03 437.023 232.027C437.023 229.02 438.527 227.333 441.535 226.969C445.181 226.695 448.827 226.285 452.473 225.738C456.118 225.1 459.172 224.189 461.633 223.004C464.185 221.819 465.461 220.224 465.461 218.219L465.598 70.2891C465.598 66.3698 464.185 63.5443 461.359 61.8125C458.625 59.9896 455.344 58.8047 451.516 58.2578C447.688 57.6198 444.087 57.2096 440.715 57.0273C438.801 56.8451 437.479 56.4805 436.75 55.9336C436.112 55.2956 435.793 53.974 435.793 51.9688C435.793 50.9661 436.158 49.5534 436.887 47.7305C437.707 45.9076 438.892 44.9961 440.441 44.9961H523.293C534.322 44.9961 544.758 46.2721 554.602 48.8242C564.536 51.3763 572.603 55.7969 578.801 62.0859C585.09 68.375 588.234 77.2161 588.234 88.6094C588.234 97.6328 586.138 105.335 581.945 111.715C577.844 118.004 572.466 122.971 565.812 126.617C559.25 130.263 552.277 132.587 544.895 133.59L545.441 132.633C551.184 132.997 557.199 134.046 563.488 135.777C569.777 137.509 575.656 140.243 581.125 143.98C586.685 147.626 591.197 152.548 594.66 158.746C598.124 164.944 599.855 172.737 599.855 182.125C599.855 192.06 597.759 200.628 593.566 207.828C589.374 215.029 583.814 220.953 576.887 225.602C569.96 230.159 562.349 233.531 554.055 235.719C545.852 237.906 537.648 239 529.445 239H441.672ZM493.352 127.711H516.32C523.43 127.711 530.174 126.572 536.555 124.293C543.026 121.923 548.312 118.049 552.414 112.672C556.516 107.294 558.566 99.957 558.566 90.6602C558.566 78.1732 554.738 69.3776 547.082 64.2734C539.426 59.1693 529.81 56.6172 518.234 56.6172H493.352V127.711ZM519.055 225.055C523.794 225.055 529.035 224.553 534.777 223.551C540.52 222.548 546.034 220.589 551.32 217.672C556.607 214.664 560.936 210.289 564.309 204.547C567.772 198.714 569.504 191.012 569.504 181.441C569.504 171.051 567.499 163.076 563.488 157.516C559.569 151.865 554.556 147.9 548.449 145.621C542.434 143.251 536.19 141.884 529.719 141.52C523.247 141.064 517.551 140.836 512.629 140.836H493.352V219.996C493.352 219.996 493.625 220.452 494.172 221.363C494.719 222.184 496.77 223.004 500.324 223.824C503.879 224.645 510.122 225.055 519.055 225.055ZM624.673 239C623.123 239 621.938 238.316 621.118 236.949C620.389 235.582 620.024 234.397 620.024 233.395C620.024 230.387 621.528 228.701 624.536 228.336C628.273 227.971 631.828 227.197 635.2 226.012C638.664 224.736 640.395 222.594 640.395 219.586V132.633C640.395 126.982 639.21 123.108 636.841 121.012C634.471 118.915 631.691 117.639 628.501 117.184C625.311 116.728 622.485 116.181 620.024 115.543C619.113 115.087 618.338 114.495 617.7 113.766C617.062 113.036 616.743 111.806 616.743 110.074C616.743 108.98 617.016 107.75 617.563 106.383C618.201 105.016 619.022 104.286 620.024 104.195C629.139 103.648 637.16 103.147 644.087 102.691C651.014 102.236 656.437 101.962 660.356 101.871C661.085 101.871 661.906 102.236 662.817 102.965C663.729 103.694 664.276 105.152 664.458 107.34V127.164C667.283 122.698 670.337 118.46 673.618 114.449C676.99 110.348 680.773 106.975 684.966 104.332C689.158 101.689 693.989 100.367 699.458 100.367C705.291 100.367 709.666 101.324 712.583 103.238C715.499 105.152 717.459 107.568 718.462 110.484C719.464 113.401 719.966 116.454 719.966 119.645C719.966 123.108 718.872 125.979 716.684 128.258C714.588 130.445 712.127 132.086 709.302 133.18C706.567 134.273 704.289 134.82 702.466 134.82L689.477 118.414C686.743 118.414 683.826 119.462 680.727 121.559C677.72 123.655 674.894 126.435 672.251 129.898C669.608 133.362 667.466 137.099 665.825 141.109V215.074C665.825 218.993 667.101 221.865 669.653 223.688C672.296 225.419 675.441 226.559 679.087 227.105C682.824 227.652 686.242 228.062 689.341 228.336C691.255 228.518 692.531 228.883 693.169 229.43C693.898 229.977 694.262 231.298 694.262 233.395C694.262 234.397 693.852 235.582 693.032 236.949C692.303 238.316 691.164 239 689.614 239H624.673ZM730.974 171.734C730.974 158.609 733.572 146.669 738.767 135.914C744.054 125.068 751.573 116.454 761.326 110.074C771.17 103.603 782.927 100.367 796.599 100.367C810.271 100.367 821.892 103.603 831.462 110.074C841.033 116.454 848.324 125.068 853.337 135.914C858.351 146.669 860.857 158.609 860.857 171.734C860.857 184.859 858.259 196.799 853.064 207.555C847.96 218.31 840.532 226.923 830.779 233.395C821.026 239.775 809.314 242.965 795.642 242.965C781.97 242.965 770.304 239.775 760.642 233.395C751.072 226.923 743.735 218.31 738.63 207.555C733.526 196.799 730.974 184.859 730.974 171.734ZM760.369 171.734C760.369 190.055 762.875 204.365 767.888 214.664C772.901 224.872 782.289 229.977 796.052 229.977C809.815 229.977 819.112 224.872 823.943 214.664C828.774 204.365 831.189 190.055 831.189 171.734C831.189 153.414 828.683 139.15 823.67 128.941C818.657 118.642 809.268 113.492 795.505 113.492C781.742 113.492 772.446 118.642 767.615 128.941C762.784 139.241 760.369 153.505 760.369 171.734ZM925.186 240.23L883.35 125.66C880.616 121.103 877.972 118.095 875.42 116.637C872.959 115.087 870.043 114.13 866.67 113.766C864.756 113.583 863.48 113.219 862.842 112.672C862.113 112.034 861.748 110.712 861.748 108.707C861.748 107.704 862.159 106.52 862.979 105.152C863.799 103.785 864.939 103.102 866.397 103.102H921.768C923.317 103.102 924.457 103.785 925.186 105.152C926.006 106.52 926.416 107.704 926.416 108.707C926.416 111.715 924.913 113.401 921.905 113.766C918.532 114.13 915.251 114.723 912.061 115.543C908.962 116.272 907.413 118.141 907.413 121.148L936.807 201.402L968.252 105.562H981.377L1016.24 200.992L1043.72 121.148C1043.72 119.143 1042.72 117.685 1040.71 116.773C1038.8 115.771 1036.52 115.087 1033.88 114.723C1031.23 114.358 1028.77 114.039 1026.49 113.766C1023.49 113.401 1021.98 111.715 1021.98 108.707C1021.98 107.704 1022.35 106.52 1023.08 105.152C1023.9 103.785 1025.08 103.102 1026.63 103.102H1071.06C1072.61 103.102 1073.75 103.785 1074.48 105.152C1075.3 106.52 1075.71 107.704 1075.71 108.707C1075.71 110.712 1075.35 112.034 1074.62 112.672C1073.98 113.219 1072.71 113.583 1070.79 113.766C1067.42 114.13 1064.68 115.087 1062.59 116.637C1060.58 118.095 1058.21 121.103 1055.48 125.66L1014.87 240.23H1004.76L968.526 141.793L935.303 240.23H925.186ZM1132.25 242.828C1124.78 242.828 1119.03 242.145 1115.02 240.777C1111.01 239.41 1107.73 238.362 1105.18 237.633C1101.35 236.448 1098.62 235.855 1096.98 235.855C1095.79 235.855 1094.83 235.992 1094.1 236.266C1093.38 236.539 1092.65 236.858 1091.92 237.223C1091.19 237.496 1090.19 237.633 1088.91 237.633C1087.36 237.633 1086.04 237.223 1084.94 236.402C1083.94 235.582 1083.44 234.443 1083.44 232.984C1083.44 230.068 1083.35 226.878 1083.17 223.414C1082.98 219.859 1082.76 216.35 1082.48 212.887C1082.21 209.423 1081.98 206.188 1081.8 203.18C1081.62 200.172 1081.53 197.711 1081.53 195.797C1081.53 193.701 1081.98 192.197 1082.89 191.285C1083.9 190.374 1084.99 189.918 1086.17 189.918C1088.64 189.918 1090.14 190.921 1090.69 192.926C1091.23 194.931 1091.96 197.438 1092.87 200.445C1093.79 203.362 1095.97 208.102 1099.44 214.664C1101.81 218.948 1104.77 222.32 1108.32 224.781C1111.88 227.151 1115.62 228.837 1119.53 229.84C1123.45 230.751 1127.1 231.207 1130.47 231.207C1138.4 231.207 1145.1 229.521 1150.57 226.148C1156.04 222.776 1158.77 217.9 1158.77 211.52C1158.77 205.96 1156.9 201.493 1153.17 198.121C1149.52 194.658 1144.92 191.65 1139.36 189.098C1133.8 186.454 1128.19 183.72 1122.54 180.895C1116.44 177.796 1110.69 174.423 1105.32 170.777C1100.03 167.04 1095.7 162.483 1092.33 157.105C1089.05 151.637 1087.41 144.801 1087.41 136.598C1087.41 128.486 1089.78 121.741 1094.51 116.363C1099.35 110.986 1105.22 106.975 1112.15 104.332C1119.17 101.689 1125.91 100.367 1132.39 100.367C1141.04 100.367 1147.38 101.279 1151.39 103.102C1155.49 104.833 1158.68 105.699 1160.96 105.699C1162.97 105.699 1164.1 105.198 1164.38 104.195C1164.74 103.102 1165.2 102.099 1165.75 101.188C1166.29 100.185 1166.93 99.4557 1167.66 99C1168.48 98.5443 1169.3 98.3164 1170.12 98.3164C1171.31 98.3164 1172.35 98.7266 1173.26 99.5469C1174.18 100.367 1174.63 101.552 1174.63 103.102C1174.63 103.922 1174.54 106.064 1174.36 109.527C1174.27 112.9 1174.22 116.637 1174.22 120.738C1174.22 125.022 1174.36 128.577 1174.63 131.402C1174.91 134.137 1175.04 136.142 1175.04 137.418C1175.04 139.332 1174.63 140.654 1173.81 141.383C1173.08 142.112 1172.22 142.477 1171.21 142.477C1168.94 142.477 1167.57 141.747 1167.11 140.289C1165.56 136.643 1163.56 132.633 1161.1 128.258C1158.73 123.883 1155.35 120.1 1150.98 116.91C1146.6 113.72 1140.59 112.125 1132.93 112.125C1127.92 112.125 1123.68 112.9 1120.22 114.449C1116.85 115.908 1114.29 118.004 1112.56 120.738C1110.83 123.382 1109.96 126.572 1109.96 130.309C1109.96 136.507 1113.2 141.702 1119.67 145.895C1126.23 150.087 1133.84 154.326 1142.5 158.609C1149.61 161.982 1156.27 165.536 1162.46 169.273C1168.75 172.919 1173.81 177.203 1177.64 182.125C1181.56 187.047 1183.52 193.108 1183.52 200.309C1183.52 212.978 1179.01 223.232 1169.98 231.07C1161.05 238.909 1148.47 242.828 1132.25 242.828ZM1263.3 242.965C1242.42 242.965 1226.66 236.63 1215.99 223.961C1205.33 211.201 1200 193.427 1200 170.641C1200 155.419 1202.87 142.613 1208.61 132.223C1214.35 121.741 1221.92 113.811 1231.3 108.434C1240.69 103.056 1250.81 100.367 1261.66 100.367C1273.14 100.367 1282.48 102.372 1289.68 106.383C1296.98 110.302 1302.58 115.816 1306.5 122.926C1310.51 129.944 1313.34 138.147 1314.98 147.535C1315.61 150.999 1316.02 154.645 1316.21 158.473C1316.48 162.301 1316.62 166.22 1316.62 170.23H1229.39C1229.48 184.632 1231.4 196.116 1235.13 204.684C1238.87 213.251 1243.56 219.404 1249.21 223.141C1254.96 226.878 1260.84 228.746 1266.85 228.746C1273.78 228.746 1280.11 227.197 1285.86 224.098C1291.6 220.908 1295.93 216.396 1298.84 210.562C1299.12 210.016 1299.39 209.469 1299.66 208.922C1299.94 208.375 1300.53 208.193 1301.44 208.375L1308.28 211.52C1309.28 211.884 1309.78 212.431 1309.78 213.16C1309.78 213.525 1309.69 213.935 1309.51 214.391C1309.33 214.755 1309.14 215.074 1308.96 215.348C1304.95 223.368 1299.25 229.977 1291.87 235.172C1284.49 240.367 1274.96 242.965 1263.3 242.965ZM1229.66 158.473L1286.27 157.652C1286.27 141.793 1283.9 130.491 1279.16 123.746C1274.42 116.91 1268.54 113.492 1261.52 113.492C1255.05 113.492 1249.53 114.54 1244.98 116.637C1240.42 118.733 1236.86 123.017 1234.31 129.488C1231.76 135.868 1230.21 145.53 1229.66 158.473ZM1339.38 239C1337.83 239 1336.65 238.316 1335.83 236.949C1335.1 235.582 1334.74 234.397 1334.74 233.395C1334.74 230.387 1336.24 228.701 1339.25 228.336C1342.98 227.971 1346.54 227.197 1349.91 226.012C1353.37 224.736 1355.11 222.594 1355.11 219.586V132.633C1355.11 126.982 1353.92 123.108 1351.55 121.012C1349.18 118.915 1346.4 117.639 1343.21 117.184C1340.02 116.728 1337.2 116.181 1334.74 115.543C1333.82 115.087 1333.05 114.495 1332.41 113.766C1331.77 113.036 1331.45 111.806 1331.45 110.074C1331.45 108.98 1331.73 107.75 1332.27 106.383C1332.91 105.016 1333.73 104.286 1334.74 104.195C1343.85 103.648 1351.87 103.147 1358.8 102.691C1365.72 102.236 1371.15 101.962 1375.07 101.871C1375.8 101.871 1376.62 102.236 1377.53 102.965C1378.44 103.694 1378.99 105.152 1379.17 107.34V127.164C1381.99 122.698 1385.05 118.46 1388.33 114.449C1391.7 110.348 1395.48 106.975 1399.68 104.332C1403.87 101.689 1408.7 100.367 1414.17 100.367C1420 100.367 1424.38 101.324 1427.29 103.238C1430.21 105.152 1432.17 107.568 1433.17 110.484C1434.18 113.401 1434.68 116.454 1434.68 119.645C1434.68 123.108 1433.58 125.979 1431.4 128.258C1429.3 130.445 1426.84 132.086 1424.01 133.18C1421.28 134.273 1419 134.82 1417.18 134.82L1404.19 118.414C1401.45 118.414 1398.54 119.462 1395.44 121.559C1392.43 123.655 1389.6 126.435 1386.96 129.898C1384.32 133.362 1382.18 137.099 1380.54 141.109V215.074C1380.54 218.993 1381.81 221.865 1384.36 223.688C1387.01 225.419 1390.15 226.559 1393.8 227.105C1397.53 227.652 1400.95 228.062 1404.05 228.336C1405.97 228.518 1407.24 228.883 1407.88 229.43C1408.61 229.977 1408.97 231.298 1408.97 233.395C1408.97 234.397 1408.56 235.582 1407.74 236.949C1407.01 238.316 1405.87 239 1404.33 239H1339.38ZM1520.74 243.102C1510.26 243.102 1502.2 241.78 1496.54 239.137C1490.98 236.493 1486.66 234.397 1483.56 232.848C1481 231.48 1478.91 230.296 1477.27 229.293C1475.63 228.29 1474.03 227.789 1472.48 227.789C1471.84 227.789 1471.16 227.971 1470.43 228.336C1469.7 228.609 1468.97 229.202 1468.24 230.113C1466.6 232.118 1464.92 233.577 1463.19 234.488C1461.45 235.309 1459.9 235.719 1458.54 235.719C1456.8 235.719 1455.39 235.126 1454.3 233.941C1453.3 232.665 1452.84 231.07 1452.93 229.156C1453.11 227.333 1453.2 225.465 1453.2 223.551C1453.2 221.637 1453.2 219.723 1453.2 217.809C1453.2 208.785 1452.7 200.445 1451.7 192.789C1450.7 185.133 1450.2 179.163 1450.2 174.879C1450.2 172.509 1450.88 170.777 1452.25 169.684C1453.71 168.499 1455.26 167.906 1456.9 167.906C1460.82 167.906 1463.23 169.82 1464.14 173.648C1464.69 175.927 1465.6 179.208 1466.88 183.492C1468.24 187.685 1470.75 193.701 1474.4 201.539C1477.68 208.466 1481.82 214.117 1486.84 218.492C1491.94 222.776 1497.27 225.921 1502.83 227.926C1508.39 229.931 1513.59 230.934 1518.42 230.934C1523.98 230.934 1529.36 230.068 1534.55 228.336C1539.75 226.604 1544.03 223.368 1547.4 218.629C1550.87 213.889 1552.6 207.053 1552.6 198.121C1552.6 191.376 1550.5 185.361 1546.31 180.074C1542.21 174.697 1536.83 169.82 1530.18 165.445C1523.61 161.07 1516.69 157.06 1509.4 153.414C1503.11 150.224 1496.86 146.806 1490.67 143.16C1484.56 139.423 1478.95 135.23 1473.85 130.582C1468.84 125.842 1464.78 120.419 1461.68 114.312C1458.58 108.115 1456.94 100.96 1456.76 92.8477C1456.49 83.4596 1458.08 75.4844 1461.54 68.9219C1465.01 62.2682 1469.57 56.8906 1475.22 52.7891C1480.87 48.6875 1487.07 45.6797 1493.81 43.7656C1500.55 41.8516 1507.07 40.8945 1513.36 40.8945C1520.65 40.8945 1526.71 41.487 1531.54 42.6719C1536.47 43.7656 1540.39 44.9049 1543.3 46.0898C1546.31 47.2747 1548.41 47.8672 1549.59 47.8672C1551.78 47.8672 1553.28 47.457 1554.1 46.6367C1555.01 45.8164 1556.11 44.9961 1557.38 44.1758C1558.39 43.5378 1559.62 43.2188 1561.08 43.2188C1562.9 43.2188 1564.58 43.7656 1566.13 44.8594C1567.78 45.862 1568.6 47.0469 1568.6 48.4141C1568.6 53.974 1568.87 59.3516 1569.42 64.5469C1570.05 69.651 1570.65 74.4362 1571.19 78.9023C1571.83 83.3685 1572.15 87.3333 1572.15 90.7969C1572.15 93.6224 1571.42 95.6276 1569.96 96.8125C1568.5 97.9062 1566.86 98.4531 1565.04 98.4531C1563.67 98.4531 1562.35 98.1341 1561.08 97.4961C1559.89 96.8581 1559.21 96.1289 1559.03 95.3086C1558.02 89.3841 1556.52 84.0977 1554.51 79.4492C1552.51 74.8008 1550.09 70.7448 1547.27 67.2812C1544.53 63.8177 1541.48 60.9466 1538.11 58.668C1534.73 56.2982 1531.13 54.5664 1527.31 53.4727C1523.57 52.2878 1519.7 51.6953 1515.69 51.6953C1509.4 51.6953 1503.79 52.7435 1498.87 54.8398C1493.95 56.9362 1490.07 60.3997 1487.25 65.2305C1484.51 69.9701 1483.15 76.4414 1483.15 84.6445C1483.15 90.4779 1485.24 95.901 1489.44 100.914C1493.72 105.836 1499.14 110.484 1505.7 114.859C1512.36 119.234 1519.19 123.473 1526.21 127.574C1532.14 131.038 1538.24 134.729 1544.53 138.648C1550.91 142.477 1556.84 146.806 1562.31 151.637C1567.78 156.376 1572.2 161.754 1575.57 167.77C1579.03 173.785 1580.76 180.621 1580.76 188.277C1580.76 200.126 1578.07 210.152 1572.7 218.355C1567.32 226.467 1560.07 232.62 1550.96 236.812C1541.94 241.005 1531.86 243.102 1520.74 243.102ZM1598.33 239C1596.78 239 1595.6 238.316 1594.78 236.949C1594.05 235.582 1593.69 234.397 1593.69 233.395C1593.69 230.387 1595.19 228.701 1598.2 228.336C1601.57 227.971 1605.03 227.197 1608.59 226.012C1612.23 224.736 1614.06 222.594 1614.06 219.586V55.9336C1614.06 50.2826 1612.87 46.4089 1610.5 44.3125C1608.13 42.2161 1605.35 40.9401 1602.16 40.4844C1598.97 40.0286 1596.15 39.4818 1593.69 38.8438C1592.77 38.388 1592 37.7956 1591.36 37.0664C1590.72 36.3372 1590.4 35.1068 1590.4 33.375C1590.4 32.2812 1590.68 31.0052 1591.22 29.5469C1591.77 28.0885 1592.59 27.3138 1593.69 27.2227C1602.8 26.6758 1611.05 26.3568 1618.43 26.2656C1625.81 26.1745 1631.47 26.0833 1635.39 25.9922C1636.11 25.9922 1636.93 26.3568 1637.85 27.0859C1638.76 27.8151 1639.3 29.2734 1639.49 31.4609V174.879L1688.71 123.883C1690.07 122.88 1690.76 121.923 1690.76 121.012C1690.76 119.098 1688.61 117.685 1684.33 116.773C1680.14 115.862 1676.31 115.315 1672.85 115.133C1671.11 114.951 1669.97 114.312 1669.43 113.219C1668.88 112.034 1668.61 110.712 1668.61 109.254C1668.61 108.251 1668.97 106.975 1669.7 105.426C1670.52 103.876 1671.71 103.102 1673.26 103.102H1728.9C1730.45 103.102 1731.59 103.876 1732.32 105.426C1733.14 106.975 1733.55 108.251 1733.55 109.254C1733.55 110.895 1733.18 112.307 1732.46 113.492C1731.73 114.586 1730.59 115.133 1729.04 115.133C1724.57 115.133 1720.06 116.454 1715.5 119.098C1710.95 121.741 1706.93 124.384 1703.47 127.027L1679 153.414C1680.82 156.604 1683.24 160.934 1686.24 166.402C1689.34 171.78 1692.81 177.704 1696.64 184.176C1700.46 190.647 1704.47 197.027 1708.67 203.316C1712.86 209.605 1716.96 215.257 1720.97 220.27C1722.98 222.73 1725.03 224.69 1727.12 226.148C1729.22 227.607 1731.41 228.336 1733.69 228.336C1735.24 228.336 1736.37 228.701 1737.1 229.43C1737.83 230.068 1738.2 231.389 1738.2 233.395C1738.2 234.397 1737.79 235.582 1736.97 236.949C1736.24 238.316 1735.1 239 1733.55 239H1697.46C1695.27 235.263 1692.85 231.116 1690.21 226.559C1687.66 222.001 1684.97 217.262 1682.14 212.34C1679.41 207.418 1676.67 202.542 1673.94 197.711C1671.21 192.789 1668.61 188.141 1666.15 183.766C1663.78 179.299 1661.64 175.289 1659.72 171.734L1639.49 192.242V215.074C1639.49 220.908 1641.17 224.508 1644.55 225.875C1648.01 227.151 1651.43 227.971 1654.8 228.336C1656.71 228.518 1657.99 228.883 1658.63 229.43C1659.36 229.977 1659.72 231.298 1659.72 233.395C1659.72 234.397 1659.31 235.582 1658.49 236.949C1657.76 238.316 1656.62 239 1655.07 239H1598.33ZM1770.53 300.387C1766.25 300.387 1762.24 299.612 1758.5 298.062C1754.86 296.604 1751.94 294.599 1749.75 292.047C1747.57 289.495 1746.47 286.669 1746.47 283.57C1746.47 277.372 1747.93 273.043 1750.85 270.582C1753.76 268.121 1756.22 266.891 1758.23 266.891L1775.18 283.57C1777.55 283.115 1780.06 281.702 1782.7 279.332C1785.44 277.053 1788.4 273.043 1791.59 267.301C1794.78 261.559 1798.29 253.401 1802.12 242.828L1755.91 125.66C1753.17 121.103 1750.53 118.095 1747.98 116.637C1745.51 115.087 1742.6 114.13 1739.23 113.766C1737.31 113.583 1736.04 113.219 1735.4 112.672C1734.67 112.034 1734.3 110.712 1734.3 108.707C1734.3 107.704 1734.71 106.52 1735.53 105.152C1736.26 103.785 1737.36 103.102 1738.82 103.102H1795.28C1796.83 103.102 1797.97 103.785 1798.7 105.152C1799.52 106.52 1799.93 107.704 1799.93 108.707C1799.93 111.715 1798.43 113.401 1795.42 113.766C1792.04 114.13 1788.76 114.723 1785.57 115.543C1782.47 116.272 1780.93 118.141 1780.93 121.148L1814.28 211.793L1844.36 121.148C1844.36 118.141 1842.54 116.272 1838.89 115.543C1835.34 114.723 1831.88 114.13 1828.5 113.766C1825.5 113.401 1823.99 111.715 1823.99 108.707C1823.99 107.704 1824.36 106.52 1825.09 105.152C1825.91 103.785 1827.09 103.102 1828.64 103.102H1874.44C1875.99 103.102 1877.13 103.785 1877.86 105.152C1878.68 106.52 1879.09 107.704 1879.09 108.707C1879.09 110.712 1878.72 112.034 1878 112.672C1877.36 113.219 1876.08 113.583 1874.17 113.766C1870.79 114.13 1868.06 115.087 1865.96 116.637C1863.96 118.095 1861.59 121.103 1858.85 125.66L1817.43 240.23C1815.51 245.517 1813.19 251.578 1810.46 258.414C1807.72 265.25 1804.49 271.858 1800.75 278.238C1797.01 284.71 1792.64 289.996 1787.62 294.098C1782.7 298.29 1777.01 300.387 1770.53 300.387Z" fill="#1E2023"/>
<defs>
<filter id="filter0_di_946_3934" x="0" y="0" width="327" height="303" filterUnits="userSpaceOnUse" color-interpolation-filters="sRGB">
<feFlood flood-opacity="0" result="BackgroundImageFix"/>
<feColorMatrix in="SourceAlpha" type="matrix" values="0 0 0 0 0 0 0 0 0 0 0 0 0 0 0 0 0 0 127 0" result="hardAlpha"/>
<feOffset dy="4"/>
<feGaussianBlur stdDeviation="2"/>
<feComposite in2="hardAlpha" operator="out"/>
<feColorMatrix type="matrix" values="0 0 0 0 0.521569 0 0 0 0 0.537255 0 0 0 0 0.54902 0 0 0 0.25 0"/>
<feBlend mode="normal" in2="BackgroundImageFix" result="effect1_dropShadow_946_3934"/>
<feBlend mode="normal" in="SourceGraphic" in2="BackgroundImageFix" result="shape"/>
<feColorMatrix in="SourceAlpha" type="matrix" values="0 0 0 0 0 0 0 0 0 0 0 0 0 0 0 0 0 0 127 0" result="hardAlpha"/>
<feOffset dy="4"/>
<feGaussianBlur stdDeviation="2"/>
<feComposite in2="hardAlpha" operator="arithmetic" k2="-1" k3="1"/>
<feColorMatrix type="matrix" values="0 0 0 0 0.690196 0 0 0 0 0.741176 0 0 0 0 0.780392 0 0 0 0.25 0"/>
<feBlend mode="normal" in2="shape" result="effect2_innerShadow_946_3934"/>
<feBlend mode="normal" in="effect2_innerShadow_946_3934" in2="effect1_dropShadow_946_3934" result="effect2_innerShadow_946_3934"/>
</filter>
<radialGradient id="paint0_radial_946_3934" cx="0" cy="0" r="1" gradientUnits="userSpaceOnUse" gradientTransform="translate(165 148.5) scale(130 121.5)">
<stop stop-color="white" stop-opacity="0.6"/>
<stop offset="1" stop-color="white" stop-opacity="0"/>
</radialGradient>
<linearGradient id="paint1_linear_946_3934" x1="115.19" y1="81" x2="115.19" y2="109.379" gradientUnits="userSpaceOnUse">
<stop stop-color="#7B8693"/>
<stop offset="1" stop-color="#656B7C"/>
</linearGradient>
<linearGradient id="paint2_linear_946_3934" x1="163" y1="132.138" x2="163" y2="162.521" gradientUnits="userSpaceOnUse">
<stop stop-color="#656B7C"/>
<stop offset="1" stop-color="#7B8693"/>
</linearGradient>
<linearGradient id="paint3_linear_946_3934" x1="213.572" y1="81" x2="213.572" y2="109.379" gradientUnits="userSpaceOnUse">
<stop stop-color="#7B8693"/>
<stop offset="1" stop-color="#656B7C"/>
</linearGradient>
</defs>
</svg>
