<svg width="300" height="300" viewBox="0 0 300 300" fill="none" xmlns="http://www.w3.org/2000/svg">
<rect width="300" height="300" rx="15" fill="#BFDBFE"/>
<rect x="0.5" y="0.5" width="299" height="299" rx="14.5" stroke="white" stroke-opacity="0.5"/>
<path d="M150 300C232.843 300 300 232.843 300 150C300 67.1573 232.843 0 150 0C67.1573 0 0 67.1573 0 150C0 232.843 67.1573 300 150 300Z" fill="url(#paint0_radial_794_3594)"/>
<path d="M87.5 137C97.165 137 105 129.165 105 119.5C105 109.835 97.165 102 87.5 102C77.835 102 70 109.835 70 119.5C70 129.165 77.835 137 87.5 137Z" fill="url(#paint1_linear_794_3594)"/>
<path d="M114.891 182.004C117.68 202.462 181.847 201.532 186.496 182.934" stroke="url(#paint2_linear_794_3594)" stroke-width="5" stroke-linecap="round"/>
<path d="M212.5 137C222.165 137 230 129.165 230 119.5C230 109.835 222.165 102 212.5 102C202.835 102 195 109.835 195 119.5C195 129.165 202.835 137 212.5 137Z" fill="url(#paint3_linear_794_3594)"/>
<defs>
<radialGradient id="paint0_radial_794_3594" cx="0" cy="0" r="1" gradientUnits="userSpaceOnUse" gradientTransform="translate(150 150) scale(150)">
<stop stop-color="white" stop-opacity="0.6"/>
<stop offset="1" stop-color="white" stop-opacity="0"/>
</radialGradient>
<linearGradient id="paint1_linear_794_3594" x1="87.5" y1="102" x2="87.5" y2="137" gradientUnits="userSpaceOnUse">
<stop stop-color="#7B8693"/>
<stop offset="1" stop-color="#656B7C"/>
</linearGradient>
<linearGradient id="paint2_linear_794_3594" x1="150.229" y1="173.635" x2="150.229" y2="202.329" gradientUnits="userSpaceOnUse">
<stop stop-color="#656B7C"/>
<stop offset="1" stop-color="#7B8693"/>
</linearGradient>
<linearGradient id="paint3_linear_794_3594" x1="212.5" y1="102" x2="212.5" y2="137" gradientUnits="userSpaceOnUse">
<stop stop-color="#7B8693"/>
<stop offset="1" stop-color="#656B7C"/>
</linearGradient>
</defs>
</svg>
