<svg width="1861" height="308" viewBox="0 0 1861 308" fill="none" xmlns="http://www.w3.org/2000/svg">
<g filter="url(#filter0_di_945_3912)">
<path d="M179 67.5C179 31.8776 146.093 3 105.5 3C64.9071 3 32 31.8776 32 67.5C32 103.122 64.9071 132 105.5 132C146.093 132 179 103.122 179 67.5Z" fill="#BFDBFE"/>
<path d="M32.5 67.5C32.5 32.2131 65.1199 3.5 105.5 3.5C145.88 3.5 178.5 32.2131 178.5 67.5C178.5 102.787 145.88 131.5 105.5 131.5C65.1199 131.5 32.5 102.787 32.5 67.5Z" stroke="white" stroke-opacity="0.5"/>
<path d="M288 64.5C288 28.8776 254.198 0 212.5 0C170.803 0 137 28.8776 137 64.5C137 100.122 170.803 129 212.5 129C254.198 129 288 100.122 288 64.5Z" fill="#BFDBFE"/>
<path d="M137.5 64.5C137.5 29.2247 171.002 0.5 212.5 0.5C253.998 0.5 287.5 29.2247 287.5 64.5C287.5 99.7753 253.998 128.5 212.5 128.5C171.002 128.5 137.5 99.7753 137.5 64.5Z" stroke="white" stroke-opacity="0.5"/>
<path d="M151 157.5C151 119.116 118.093 88 77.5 88C36.9071 88 4 119.116 4 157.5C4 195.884 36.9071 227 77.5 227C118.093 227 151 195.884 151 157.5Z" fill="#BFDBFE"/>
<path d="M4.5 157.5C4.5 119.418 37.1565 88.5 77.5 88.5C117.844 88.5 150.5 119.418 150.5 157.5C150.5 195.582 117.844 226.5 77.5 226.5C37.1565 226.5 4.5 195.582 4.5 157.5Z" stroke="white" stroke-opacity="0.5"/>
<path d="M201 228.5C201 191.773 168.093 162 127.5 162C86.9071 162 54 191.773 54 228.5C54 265.227 86.9071 295 127.5 295C168.093 295 201 265.227 201 228.5Z" fill="#BFDBFE"/>
<path d="M54.5 228.5C54.5 192.095 87.135 162.5 127.5 162.5C167.865 162.5 200.5 192.095 200.5 228.5C200.5 264.905 167.865 294.5 127.5 294.5C87.135 294.5 54.5 264.905 54.5 228.5Z" stroke="white" stroke-opacity="0.5"/>
<path d="M284 222.5C284 186.878 251.093 158 210.5 158C169.907 158 137 186.878 137 222.5C137 258.122 169.907 287 210.5 287C251.093 287 284 258.122 284 222.5Z" fill="#BFDBFE"/>
<path d="M137.5 222.5C137.5 187.213 170.12 158.5 210.5 158.5C250.88 158.5 283.5 187.213 283.5 222.5C283.5 257.787 250.88 286.5 210.5 286.5C170.12 286.5 137.5 257.787 137.5 222.5Z" stroke="white" stroke-opacity="0.5"/>
<path d="M323 149C323 111.445 290.093 81 249.5 81C208.907 81 176 111.445 176 149C176 186.555 208.907 217 249.5 217C290.093 217 323 186.555 323 149Z" fill="#BFDBFE"/>
<path d="M176.5 149C176.5 111.757 209.146 81.5 249.5 81.5C289.854 81.5 322.5 111.757 322.5 149C322.5 186.243 289.854 216.5 249.5 216.5C209.146 216.5 176.5 186.243 176.5 149Z" stroke="white" stroke-opacity="0.5"/>
<path d="M235 145.5C235 109.878 202.093 81 161.5 81C120.907 81 88 109.878 88 145.5C88 181.122 120.907 210 161.5 210C202.093 210 235 181.122 235 145.5Z" fill="#BFDBFE"/>
<path d="M282 214C282 178.101 230.96 149 168 149C105.04 149 54 178.101 54 214C54 249.899 105.04 279 168 279C230.96 279 282 249.899 282 214Z" fill="#BFDBFE"/>
<path d="M282 90C282 52.4446 228.05 22 161.5 22C94.9497 22 41 52.4446 41 90C41 127.555 94.9497 158 161.5 158C228.05 158 282 127.555 282 90Z" fill="#BFDBFE"/>
<path d="M165 270C236.797 270 295 215.603 295 148.5C295 81.3974 236.797 27 165 27C93.203 27 35 81.3974 35 148.5C35 215.603 93.203 270 165 270Z" fill="url(#paint0_radial_945_3912)"/>
<path d="M115.19 109.379C123.026 109.379 129.379 103.026 129.379 95.1895C129.379 87.3529 123.026 81 115.19 81C107.353 81 101 87.3529 101 95.1895C101 103.026 107.353 109.379 115.19 109.379Z" fill="url(#paint1_linear_945_3912)"/>
<path d="M125 141C128 162.662 197 161.677 202 141.985" stroke="url(#paint2_linear_945_3912)" stroke-width="3" stroke-linecap="round"/>
<path d="M213.572 109.379C221.409 109.379 227.762 103.026 227.762 95.1895C227.762 87.3529 221.409 81 213.572 81C205.736 81 199.383 87.3529 199.383 95.1895C199.383 103.026 205.736 109.379 213.572 109.379Z" fill="url(#paint3_linear_945_3912)"/>
</g>
<path d="M439.472 93.2734C438.014 91.6328 437.284 89.8099 437.284 87.8047C437.284 84.888 438.469 82.5182 440.839 80.6953C443.391 78.6901 446.034 77.6875 448.769 77.6875C450.409 77.6875 451.959 78.3255 453.417 79.6016C455.058 80.6953 456.516 82.0625 457.792 83.7031C459.068 85.3438 460.253 87.0755 461.347 88.8984C462.441 90.7214 463.352 92.362 464.081 93.8203C468.456 88.5339 473.56 84.7057 479.394 82.3359C485.227 79.7839 491.607 78.5078 498.534 78.5078C505.097 78.5078 510.839 79.6016 515.761 81.7891C520.683 83.7943 524.784 86.6198 528.066 90.2656C531.529 93.7292 534.081 97.7396 535.722 102.297C537.545 106.672 538.456 111.32 538.456 116.242C538.456 118.977 537.909 121.984 536.816 125.266C535.722 128.547 534.081 131.737 531.894 134.836C529.889 137.753 527.428 140.487 524.511 143.039C521.594 145.591 518.404 147.596 514.941 149.055C521.321 149.602 526.972 151.242 531.894 153.977C536.816 156.529 540.917 159.719 544.198 163.547C547.48 167.193 549.941 171.294 551.581 175.852C553.404 180.227 554.316 184.602 554.316 188.977C554.316 196.815 552.857 203.742 549.941 209.758C547.206 215.773 543.196 220.878 537.909 225.07C532.805 229.081 526.607 232.089 519.316 234.094C512.024 236.281 503.912 237.375 494.98 237.375C489.146 237.375 483.586 237.102 478.3 236.555C473.014 236.008 468.274 235.096 464.081 233.82C459.889 232.727 456.516 231.268 453.964 229.445C451.594 227.622 450.409 225.435 450.409 222.883C450.956 213.404 451.412 202.74 451.777 190.891C452.323 178.859 452.597 166.828 452.597 154.797C452.597 147.323 452.506 140.214 452.323 133.469C452.141 126.724 451.868 120.435 451.503 114.602C449.862 111.138 448.131 107.674 446.308 104.211C444.485 100.747 442.206 97.1016 439.472 93.2734ZM472.011 114.328C472.376 123.078 472.649 132.01 472.831 141.125C473.014 150.24 473.105 159.172 473.105 167.922C473.105 176.672 472.922 185.057 472.558 193.078C472.376 201.099 472.102 208.391 471.737 214.953C476.295 216.047 480.943 216.958 485.683 217.688C490.422 218.417 494.615 218.781 498.261 218.781C501.542 218.781 505.279 218.234 509.472 217.141C513.665 216.047 517.584 214.406 521.23 212.219C525.058 210.031 528.248 207.297 530.8 204.016C533.352 200.552 534.628 196.451 534.628 191.711C534.264 182.232 530.435 174.849 523.144 169.562C516.034 164.276 505.917 161.633 492.792 161.633C490.787 161.633 489.237 160.448 488.144 158.078C487.232 155.708 486.777 153.247 486.777 150.695C486.777 147.232 487.779 144.862 489.784 143.586C498.17 140.305 505.097 136.385 510.566 131.828C516.034 127.271 518.769 122.258 518.769 116.789C518.404 110.773 516.672 106.034 513.573 102.57C510.657 98.9245 505.826 97.1016 499.081 97.1016C493.612 97.1016 488.508 98.4688 483.769 101.203C479.211 103.755 475.292 108.13 472.011 114.328ZM606.477 167.648C613.768 160.357 622.427 154.523 632.453 150.148C642.479 145.591 653.052 143.039 664.172 142.492C666.906 142.857 668.911 144.133 670.187 146.32C671.646 148.326 672.375 150.513 672.375 152.883C672.375 154.888 671.828 156.802 670.734 158.625C669.823 160.266 668.365 161.086 666.359 161.086C654.328 163.82 643.755 167.284 634.641 171.477C625.708 175.669 618.508 181.229 613.039 188.156C613.039 191.802 613.221 195.448 613.586 199.094C614.133 202.557 614.406 206.203 614.406 210.031C614.406 214.771 614.224 219.51 613.859 224.25C613.677 228.99 613.13 233.638 612.219 238.195C612.036 240.565 610.852 242.206 608.664 243.117C606.477 244.029 604.107 244.484 601.555 244.484C599.003 244.484 596.633 243.846 594.445 242.57C592.44 241.477 591.437 239.836 591.437 237.648C591.984 232.544 592.44 227.349 592.805 222.062C593.352 216.594 593.625 211.216 593.625 205.93C593.625 198.82 592.714 192.896 590.891 188.156C589.25 183.417 587.701 179.497 586.242 176.398C585.695 175.487 584.602 174.211 582.961 172.57C581.503 170.747 579.953 168.924 578.312 167.102C576.672 165.096 575.214 163.091 573.937 161.086C572.661 159.081 572.023 157.349 572.023 155.891C572.023 152.792 573.208 150.148 575.578 147.961C578.13 145.591 580.956 144.406 584.055 144.406C587.154 144.406 590.799 146.685 594.992 151.242C599.185 155.799 603.013 161.268 606.477 167.648ZM735.747 147.961C736.476 147.414 737.296 146.958 738.208 146.594C739.119 146.047 740.122 145.773 741.216 145.773C745.955 146.138 750.877 147.414 755.981 149.602C761.085 151.789 765.734 154.888 769.927 158.898C774.119 162.909 777.583 167.74 780.317 173.391C783.052 179.042 784.419 185.513 784.419 192.805C784.236 200.461 782.869 207.206 780.317 213.039C777.947 218.69 774.666 223.43 770.473 227.258C766.463 231.086 761.632 233.911 755.981 235.734C750.512 237.74 744.497 238.742 737.934 238.742C732.83 238.742 727.635 237.74 722.348 235.734C717.062 233.911 712.322 231.177 708.13 227.531C703.937 223.703 700.473 219.146 697.739 213.859C695.005 208.573 693.637 202.466 693.637 195.539C693.637 189.341 694.822 183.326 697.192 177.492C699.562 171.477 702.479 166.19 705.942 161.633C709.588 157.076 713.507 153.43 717.7 150.695C722.075 147.961 726.177 146.594 730.005 146.594C732.01 146.594 733.924 147.049 735.747 147.961ZM737.387 164.094C734.106 165.734 731.098 167.466 728.364 169.289C725.812 170.93 723.533 172.935 721.528 175.305C719.705 177.674 718.247 180.591 717.153 184.055C716.242 187.518 715.786 191.802 715.786 196.906C715.786 201.464 716.515 205.201 717.973 208.117C719.614 211.034 721.619 213.404 723.989 215.227C726.541 216.867 729.276 218.052 732.192 218.781C735.291 219.328 738.299 219.602 741.216 219.602C747.414 219.602 752.609 217.141 756.802 212.219C760.994 207.297 763.091 201.281 763.091 194.172C763.091 188.703 762.27 184.237 760.63 180.773C759.171 177.31 757.166 174.576 754.614 172.57C752.244 170.383 749.51 168.742 746.411 167.648C743.312 166.372 740.304 165.188 737.387 164.094ZM872.4 142.492C874.041 148.508 875.499 154.797 876.775 161.359C878.233 167.922 879.601 174.484 880.877 181.047C882.153 187.427 883.337 193.534 884.431 199.367C885.707 205.201 886.983 210.487 888.259 215.227C890.082 209.029 891.814 203.013 893.455 197.18C895.278 191.346 897.009 185.422 898.65 179.406C900.291 173.391 901.84 167.01 903.298 160.266C904.939 153.339 906.306 145.773 907.4 137.57C907.765 135.383 908.676 133.833 910.134 132.922C911.775 131.828 913.507 131.281 915.33 131.281C918.246 131.281 920.798 132.193 922.986 134.016C925.356 135.839 926.541 138.117 926.541 140.852C924.353 153.43 921.801 165.734 918.884 177.766C916.15 189.615 913.142 200.279 909.861 209.758C906.762 219.055 903.39 226.529 899.744 232.18C896.28 237.831 892.634 240.656 888.806 240.656C885.525 240.656 882.517 238.56 879.783 234.367C877.048 230.357 874.587 225.161 872.4 218.781C870.212 212.219 868.298 204.836 866.658 196.633C865.017 188.43 863.65 180.227 862.556 172.023C861.098 180.227 859.457 188.43 857.634 196.633C855.811 204.654 853.806 211.945 851.619 218.508C849.431 224.888 847.061 230.083 844.509 234.094C841.957 238.104 839.132 240.109 836.033 240.109C831.84 240.109 827.921 237.01 824.275 230.812C820.629 224.432 817.257 216.32 814.158 206.477C811.059 196.633 808.233 185.695 805.681 173.664C803.129 161.451 800.942 149.419 799.119 137.57V136.477C799.119 134.289 800.212 132.375 802.4 130.734C804.587 128.911 807.048 128 809.783 128C811.788 128 813.611 128.547 815.252 129.641C817.074 130.734 818.259 132.466 818.806 134.836C820.629 149.966 822.817 163.82 825.369 176.398C827.921 188.977 831.384 202.102 835.759 215.773C836.853 207.023 839.132 196.815 842.595 185.148C846.059 173.299 849.431 159.081 852.712 142.492C853.259 139.758 854.444 137.753 856.267 136.477C858.09 135.018 860.095 134.289 862.283 134.289C864.47 134.289 866.476 135.018 868.298 136.477C870.304 137.753 871.671 139.758 872.4 142.492ZM945.616 174.758C943.793 172.206 942.881 168.651 942.881 164.094C942.881 158.99 943.793 154.25 945.616 149.875C947.439 145.318 950.082 141.398 953.545 138.117C957.009 134.836 961.293 132.284 966.397 130.461C971.501 128.456 977.425 127.453 984.17 127.453C988.363 127.453 992.738 128.091 997.295 129.367C1001.85 130.461 1005.95 131.919 1009.6 133.742C1013.43 135.565 1016.53 137.661 1018.9 140.031C1021.27 142.219 1022.45 144.406 1022.45 146.594C1022.45 149.693 1021.27 152.154 1018.9 153.977C1016.53 155.799 1014.34 156.711 1012.33 156.711C1011.61 156.711 1010.69 156.529 1009.6 156.164C1003.4 153.065 997.933 150.878 993.194 149.602C988.454 148.326 984.261 147.688 980.616 147.688C974.782 147.688 970.407 149.328 967.491 152.609C964.756 155.708 963.389 159.628 963.389 164.367C963.389 168.742 964.939 172.115 968.037 174.484C971.136 176.672 974.965 178.586 979.522 180.227C984.261 181.685 989.366 183.143 994.834 184.602C1000.3 185.878 1005.32 187.792 1009.87 190.344C1014.61 192.896 1018.53 196.268 1021.63 200.461C1024.73 204.471 1026.28 210.031 1026.28 217.141C1026.28 226.802 1022.72 233.911 1015.62 238.469C1008.69 243.208 999.209 245.578 987.178 245.578C982.256 245.578 977.152 245.305 971.866 244.758C966.579 244.211 961.748 243.299 957.373 242.023C953.181 240.93 949.717 239.38 946.983 237.375C944.248 235.37 942.881 232.818 942.881 229.719C942.881 227.349 943.519 225.161 944.795 223.156C946.254 220.969 948.168 219.875 950.537 219.875C950.902 219.875 951.175 219.966 951.358 220.148C951.54 220.148 951.814 220.148 952.178 220.148C958.558 223.065 964.574 225.07 970.225 226.164C975.876 227.076 980.798 227.531 984.991 227.531C993.194 227.531 998.936 226.529 1002.22 224.523C1005.5 222.518 1007.14 219.693 1007.14 216.047C1007.14 213.13 1005.95 210.669 1003.58 208.664C1001.4 206.477 998.571 204.745 995.108 203.469C991.827 202.01 988.181 200.734 984.17 199.641C980.342 198.547 976.787 197.453 973.506 196.359C968.402 194.719 963.389 192.349 958.467 189.25C953.728 186.151 949.444 181.32 945.616 174.758ZM1130.94 157.258C1136.59 165.096 1139.42 171.932 1139.42 177.766C1139.42 183.964 1136.23 188.065 1129.85 190.07L1072.7 207.023C1075.07 210.669 1078.08 213.495 1081.72 215.5C1085.55 217.505 1089.38 218.508 1093.21 218.508C1099.22 218.508 1104.87 217.596 1110.16 215.773C1115.63 213.768 1120.73 210.305 1125.47 205.383C1126.75 204.107 1128.21 203.469 1129.85 203.469C1132.03 203.469 1134.22 204.562 1136.41 206.75C1138.78 208.755 1139.96 211.034 1139.96 213.586C1139.96 216.138 1138.69 218.781 1136.14 221.516C1133.77 224.25 1130.58 226.893 1126.57 229.445C1122.56 231.815 1118 233.729 1112.89 235.188C1107.79 236.828 1102.59 237.648 1097.31 237.648C1092.02 237.648 1086.37 236.828 1080.35 235.188C1074.52 233.547 1069.05 230.995 1063.95 227.531C1058.84 223.885 1054.65 219.237 1051.37 213.586C1048.09 207.935 1046.45 201.008 1046.45 192.805C1046.45 184.055 1049.27 174.029 1054.92 162.727C1058.57 155.617 1064.13 150.422 1071.6 147.141C1079.26 143.677 1087.28 141.945 1095.67 141.945C1102.59 141.945 1109.16 143.221 1115.35 145.773C1121.73 148.326 1126.93 152.154 1130.94 157.258ZM1068.05 188.703L1117.82 174.211C1116.9 169.471 1114.44 166.008 1110.43 163.82C1106.6 161.451 1102.32 160.266 1097.58 160.266C1092.29 160.266 1087.74 161.268 1083.91 163.273C1080.26 165.096 1077.26 167.466 1074.89 170.383C1072.52 173.299 1070.78 176.398 1069.69 179.68C1068.6 182.961 1068.05 185.969 1068.05 188.703ZM1194.04 167.648C1201.33 160.357 1209.99 154.523 1220.02 150.148C1230.04 145.591 1240.61 143.039 1251.73 142.492C1254.47 142.857 1256.47 144.133 1257.75 146.32C1259.21 148.326 1259.94 150.513 1259.94 152.883C1259.94 154.888 1259.39 156.802 1258.3 158.625C1257.39 160.266 1255.93 161.086 1253.92 161.086C1241.89 163.82 1231.32 167.284 1222.2 171.477C1213.27 175.669 1206.07 181.229 1200.6 188.156C1200.6 191.802 1200.78 195.448 1201.15 199.094C1201.7 202.557 1201.97 206.203 1201.97 210.031C1201.97 214.771 1201.79 219.51 1201.42 224.25C1201.24 228.99 1200.69 233.638 1199.78 238.195C1199.6 240.565 1198.41 242.206 1196.23 243.117C1194.04 244.029 1191.67 244.484 1189.12 244.484C1186.57 244.484 1184.2 243.846 1182.01 242.57C1180 241.477 1179 239.836 1179 237.648C1179.55 232.544 1180 227.349 1180.37 222.062C1180.91 216.594 1181.19 211.216 1181.19 205.93C1181.19 198.82 1180.28 192.896 1178.45 188.156C1176.81 183.417 1175.26 179.497 1173.8 176.398C1173.26 175.487 1172.16 174.211 1170.52 172.57C1169.07 170.747 1167.52 168.924 1165.88 167.102C1164.23 165.096 1162.78 163.091 1161.5 161.086C1160.22 159.081 1159.59 157.349 1159.59 155.891C1159.59 152.792 1160.77 150.148 1163.14 147.961C1165.69 145.591 1168.52 144.406 1171.62 144.406C1174.72 144.406 1178.36 146.685 1182.55 151.242C1186.75 155.799 1190.58 161.268 1194.04 167.648ZM1288.86 147.414C1285.21 143.951 1282.66 140.305 1281.2 136.477C1279.92 132.466 1279.29 128.456 1279.29 124.445C1279.29 116.06 1280.74 109.042 1283.66 103.391C1286.76 97.7396 1290.5 93.1823 1294.87 89.7188C1299.43 86.2552 1304.35 83.7943 1309.64 82.3359C1314.92 80.8776 1319.85 80.1484 1324.4 80.1484C1328.78 80.1484 1333.06 80.7865 1337.25 82.0625C1341.63 83.1562 1345.64 84.7969 1349.29 86.9844C1353.11 88.9896 1356.4 91.5417 1359.13 94.6406C1362.05 97.5573 1364.33 100.747 1365.97 104.211C1365.97 104.576 1365.97 104.94 1365.97 105.305C1366.15 105.487 1366.24 105.76 1366.24 106.125C1366.24 109.406 1364.78 111.958 1361.86 113.781C1359.13 115.422 1356.76 116.242 1354.75 116.242C1352.38 116.242 1350.65 115.331 1349.56 113.508C1346.64 109.315 1342.72 106.125 1337.8 103.938C1333.06 101.75 1328.05 100.656 1322.76 100.656C1320.21 100.839 1317.66 101.477 1315.11 102.57C1312.55 103.482 1310.18 104.94 1308 106.945C1305.81 108.768 1303.99 111.138 1302.53 114.055C1301.25 116.971 1300.61 120.435 1300.61 124.445C1300.61 129.549 1302.8 134.016 1307.18 137.844C1311.73 141.49 1317.11 145.044 1323.31 148.508C1329.69 151.971 1336.25 155.617 1343 159.445C1349.92 163.273 1355.76 167.831 1360.5 173.117C1364.51 177.674 1367.33 182.596 1368.97 187.883C1370.8 193.169 1371.71 198.182 1371.71 202.922C1371.71 211.125 1369.98 217.779 1366.51 222.883C1363.23 227.987 1359.13 231.997 1354.21 234.914C1349.47 237.831 1344.27 239.836 1338.62 240.93C1333.15 242.023 1328.23 242.57 1323.86 242.57C1318.39 242.57 1313.01 241.932 1307.72 240.656C1302.62 239.38 1298.06 237.648 1294.05 235.461C1290.04 233.456 1286.76 231.268 1284.21 228.898C1281.84 226.346 1280.65 223.794 1280.65 221.242C1280.65 218.69 1281.38 216.138 1282.84 213.586C1284.48 210.852 1286.49 209.484 1288.86 209.484C1289.59 209.484 1290.5 209.758 1291.59 210.305C1298.7 215.591 1304.81 218.964 1309.91 220.422C1315.02 221.88 1319.21 222.609 1322.49 222.609C1330.69 222.609 1337.35 220.604 1342.45 216.594C1347.55 212.583 1350.11 207.115 1350.11 200.188C1350.11 195.995 1348.92 192.258 1346.55 188.977C1344.18 185.695 1341.36 182.779 1338.08 180.227C1334.79 177.674 1331.33 175.487 1327.68 173.664C1324.04 171.841 1320.94 170.292 1318.39 169.016C1314.01 166.828 1309.36 164.185 1304.44 161.086C1299.7 157.987 1294.51 153.43 1288.86 147.414ZM1388.32 104.758C1387.05 103.299 1386.41 101.477 1386.41 99.2891C1386.41 96.5547 1387.41 94.1849 1389.42 92.1797C1391.42 89.9922 1393.97 88.8984 1397.07 88.8984C1399.81 88.8984 1402.36 89.9922 1404.73 92.1797C1407.1 94.3672 1409.19 97.1016 1411.02 100.383C1413.02 103.664 1414.66 107.219 1415.94 111.047C1417.22 114.875 1418.22 118.43 1418.95 121.711C1420.22 127.544 1421.04 135.018 1421.41 144.133C1421.95 153.065 1422.32 162.544 1422.5 172.57C1434.35 169.471 1443.01 165.734 1448.48 161.359C1454.13 156.802 1456.95 151.516 1456.95 145.5C1456.95 142.583 1456.23 139.667 1454.77 136.75C1453.31 133.833 1452.58 131.372 1452.58 129.367C1452.58 127.18 1453.76 125.357 1456.13 123.898C1458.5 122.258 1461.15 121.438 1464.06 121.438C1465.7 121.438 1467.35 121.893 1468.99 122.805C1470.63 123.534 1472.08 124.901 1473.36 126.906C1474.82 128.729 1476 131.281 1476.92 134.562C1477.83 137.844 1478.28 141.945 1478.28 146.867C1478.28 151.424 1477.46 155.617 1475.82 159.445C1474.18 163.273 1471.99 166.737 1469.26 169.836C1466.52 172.935 1463.43 175.669 1459.96 178.039C1456.68 180.409 1453.31 182.323 1449.85 183.781C1457.5 188.156 1464.25 193.898 1470.08 201.008C1475.91 208.117 1480.01 216.32 1482.38 225.617C1482.38 225.982 1482.38 226.346 1482.38 226.711C1482.57 227.076 1482.66 227.44 1482.66 227.805C1482.66 230.721 1481.47 232.909 1479.1 234.367C1476.92 236.008 1474.45 236.828 1471.72 236.828C1468.26 236.828 1466.16 235.643 1465.43 233.273C1462.88 226.711 1459.96 221.242 1456.68 216.867C1453.58 212.31 1450.21 208.573 1446.56 205.656C1442.92 202.74 1439 200.552 1434.81 199.094C1430.8 197.453 1426.6 196.177 1422.23 195.266C1421.86 200.005 1421.68 204.927 1421.68 210.031C1421.68 215.135 1421.32 219.875 1420.59 224.25C1420.04 228.625 1418.86 232.18 1417.03 234.914C1415.39 237.831 1412.75 239.289 1409.1 239.289C1406.55 239.289 1404.36 238.56 1402.54 237.102C1400.72 235.826 1399.81 233.82 1399.81 231.086C1399.81 221.789 1400.08 211.763 1400.63 201.008C1401.36 190.253 1401.72 179.589 1401.72 169.016C1401.72 161.177 1401.45 153.794 1400.9 146.867C1400.54 139.758 1399.62 133.378 1398.17 127.727L1394.88 117.336C1394.34 115.513 1393.43 113.599 1392.15 111.594C1391.06 109.406 1389.78 107.128 1388.32 104.758ZM1552.32 278.664C1547.03 282.857 1540.93 284.953 1534 284.953C1527.98 284.953 1521.97 283.495 1515.95 280.578C1510.12 277.661 1505.47 273.742 1502.01 268.82C1501.28 268.091 1500.91 267.089 1500.91 265.812C1500.91 263.443 1501.73 260.891 1503.37 258.156C1505.2 255.604 1507.29 254.328 1509.66 254.328C1510.57 254.328 1511.49 254.602 1512.4 255.148C1515.68 258.065 1519.05 260.344 1522.51 261.984C1526.16 263.625 1529.62 264.445 1532.9 264.445C1538.92 264.445 1543.75 260.617 1547.4 252.961C1551.23 245.487 1554.23 234.458 1556.42 219.875C1553.69 220.786 1550.86 221.516 1547.94 222.062C1545.21 222.427 1542.29 222.609 1539.19 222.609C1536.46 222.609 1532.72 222.427 1527.98 222.062C1523.24 221.698 1518.5 220.057 1513.76 217.141C1509.02 214.224 1504.92 209.667 1501.46 203.469C1498 197.089 1496.26 187.883 1496.26 175.852C1496.26 172.57 1496.36 169.198 1496.54 165.734C1496.72 162.271 1496.9 158.898 1497.08 155.617C1497.45 152.154 1497.81 148.964 1498.18 146.047C1498.54 142.948 1498.91 140.305 1499.27 138.117C1499.64 135.201 1500.73 133.104 1502.55 131.828C1504.38 130.552 1506.38 129.914 1508.57 129.914C1511.12 129.914 1513.49 130.643 1515.68 132.102C1517.87 133.56 1518.96 135.565 1518.96 138.117C1518.96 141.398 1518.59 145.409 1517.87 150.148C1517.14 154.888 1516.77 159.81 1516.77 164.914C1516.77 172.023 1516.95 178.039 1517.32 182.961C1517.68 187.701 1518.69 191.62 1520.33 194.719C1521.97 197.635 1524.34 199.732 1527.44 201.008C1530.72 202.284 1535.09 202.922 1540.56 202.922C1543.84 202.922 1546.76 202.466 1549.31 201.555C1552.05 200.643 1555.24 199.732 1558.88 198.82C1559.98 185.148 1560.52 171.385 1560.52 157.531C1560.52 151.333 1560.43 145.409 1560.25 139.758C1560.07 133.924 1559.79 128.638 1559.43 123.898C1559.43 121.893 1560.43 120.253 1562.44 118.977C1564.44 117.518 1566.9 116.789 1569.82 116.789C1572.01 116.789 1574.1 117.245 1576.11 118.156C1578.11 118.885 1579.48 120.253 1580.21 122.258C1580.57 126.451 1580.85 130.917 1581.03 135.656C1581.21 140.214 1581.3 144.862 1581.3 149.602C1581.3 162.362 1580.67 175.578 1579.39 189.25C1578.3 202.74 1576.47 215.5 1573.92 227.531C1571.55 239.562 1568.54 250.135 1564.9 259.25C1561.25 268.365 1557.06 274.836 1552.32 278.664ZM1709.14 84.5234C1710.6 81.9714 1712.42 80.4219 1714.61 79.875C1716.8 79.1458 1718.89 78.7812 1720.9 78.7812C1724 78.7812 1727.64 83.1562 1731.84 91.9062C1736.03 100.656 1740.4 112.049 1744.96 126.086C1749.7 140.122 1754.44 155.982 1759.18 173.664C1763.92 191.346 1768.2 209.211 1772.03 227.258C1772.03 227.622 1772.03 227.987 1772.03 228.352C1772.21 228.534 1772.3 228.807 1772.3 229.172C1772.3 232.089 1771.12 234.549 1768.75 236.555C1766.38 238.56 1763.65 239.562 1760.55 239.562C1758.54 239.562 1756.81 238.924 1755.35 237.648C1753.89 236.555 1752.89 234.549 1752.34 231.633C1751.43 226.346 1749.88 219.875 1747.7 212.219C1745.51 204.562 1743.41 196.359 1741.41 187.609C1737.4 187.974 1732.66 188.339 1727.19 188.703C1721.9 188.885 1716.43 188.977 1710.78 188.977C1707.86 188.977 1705.04 188.977 1702.3 188.977C1699.75 188.794 1697.2 188.612 1694.65 188.43C1691.73 197.727 1689.09 206.112 1686.72 213.586C1684.35 221.06 1682.53 227.076 1681.25 231.633C1680.34 234.732 1678.97 236.828 1677.15 237.922C1675.51 239.016 1673.68 239.562 1671.68 239.562C1669.13 239.562 1666.67 238.56 1664.3 236.555C1662.11 234.732 1661.02 232.544 1661.02 229.992C1661.02 229.628 1661.2 228.716 1661.56 227.258L1684.26 154.25C1686.45 146.958 1688.72 139.758 1691.09 132.648C1693.46 125.357 1695.74 118.612 1697.93 112.414C1700.12 106.216 1702.12 100.747 1703.95 96.0078C1705.95 91.0859 1707.68 87.2578 1709.14 84.5234ZM1719.53 113.234C1716.61 121.073 1713.52 129.914 1710.23 139.758C1706.95 149.602 1703.76 159.445 1700.66 169.289C1702.67 169.289 1704.77 169.38 1706.95 169.562C1709.14 169.562 1711.33 169.562 1713.52 169.562C1721.72 169.562 1729.28 169.289 1736.21 168.742C1733.48 158.898 1730.65 149.146 1727.73 139.484C1724.82 129.823 1722.08 121.073 1719.53 113.234ZM1800.4 92.7266C1798.94 90.7214 1798.22 88.8984 1798.22 87.2578C1798.22 84.5234 1799.49 82.1536 1802.04 80.1484C1804.6 78.1432 1807.24 77.1406 1809.97 77.1406C1812.53 77.1406 1814.99 78.4167 1817.36 80.9688C1819.91 83.5208 1822.19 86.6198 1824.19 90.2656C1826.38 93.7292 1828.29 97.375 1829.93 101.203C1831.76 104.849 1833.22 107.857 1834.31 110.227C1835.04 120.07 1835.59 130.734 1835.95 142.219C1836.5 153.703 1836.77 165.188 1836.77 176.672C1836.77 188.156 1836.59 199.003 1836.22 209.211C1835.86 219.419 1835.22 227.987 1834.31 234.914C1833.94 237.831 1832.76 239.927 1830.75 241.203C1828.93 242.479 1827.02 243.117 1825.01 243.117C1821.91 243.117 1819.09 242.297 1816.54 240.656C1814.17 239.016 1812.98 236.737 1812.98 233.82C1812.98 226.164 1813.25 217.232 1813.8 207.023C1814.53 196.815 1814.9 186.151 1814.9 175.031C1814.9 164.458 1814.8 153.977 1814.62 143.586C1814.44 133.195 1814.07 123.898 1813.53 115.695C1811.89 112.232 1809.97 108.495 1807.79 104.484C1805.6 100.474 1803.14 96.5547 1800.4 92.7266Z" fill="#1E2023"/>
<defs>
<filter id="filter0_di_945_3912" x="0" y="0" width="327" height="303" filterUnits="userSpaceOnUse" color-interpolation-filters="sRGB">
<feFlood flood-opacity="0" result="BackgroundImageFix"/>
<feColorMatrix in="SourceAlpha" type="matrix" values="0 0 0 0 0 0 0 0 0 0 0 0 0 0 0 0 0 0 127 0" result="hardAlpha"/>
<feOffset dy="4"/>
<feGaussianBlur stdDeviation="2"/>
<feComposite in2="hardAlpha" operator="out"/>
<feColorMatrix type="matrix" values="0 0 0 0 0.521569 0 0 0 0 0.537255 0 0 0 0 0.54902 0 0 0 0.25 0"/>
<feBlend mode="normal" in2="BackgroundImageFix" result="effect1_dropShadow_945_3912"/>
<feBlend mode="normal" in="SourceGraphic" in2="BackgroundImageFix" result="shape"/>
<feColorMatrix in="SourceAlpha" type="matrix" values="0 0 0 0 0 0 0 0 0 0 0 0 0 0 0 0 0 0 127 0" result="hardAlpha"/>
<feOffset dy="4"/>
<feGaussianBlur stdDeviation="2"/>
<feComposite in2="hardAlpha" operator="arithmetic" k2="-1" k3="1"/>
<feColorMatrix type="matrix" values="0 0 0 0 0.690196 0 0 0 0 0.741176 0 0 0 0 0.780392 0 0 0 0.25 0"/>
<feBlend mode="normal" in2="shape" result="effect2_innerShadow_945_3912"/>
<feBlend mode="normal" in="effect2_innerShadow_945_3912" in2="effect1_dropShadow_945_3912" result="effect2_innerShadow_945_3912"/>
</filter>
<radialGradient id="paint0_radial_945_3912" cx="0" cy="0" r="1" gradientUnits="userSpaceOnUse" gradientTransform="translate(165 148.5) scale(130 121.5)">
<stop stop-color="white" stop-opacity="0.6"/>
<stop offset="1" stop-color="white" stop-opacity="0"/>
</radialGradient>
<linearGradient id="paint1_linear_945_3912" x1="115.19" y1="81" x2="115.19" y2="109.379" gradientUnits="userSpaceOnUse">
<stop stop-color="#7B8693"/>
<stop offset="1" stop-color="#656B7C"/>
</linearGradient>
<linearGradient id="paint2_linear_945_3912" x1="163" y1="132.138" x2="163" y2="162.521" gradientUnits="userSpaceOnUse">
<stop stop-color="#656B7C"/>
<stop offset="1" stop-color="#7B8693"/>
</linearGradient>
<linearGradient id="paint3_linear_945_3912" x1="213.572" y1="81" x2="213.572" y2="109.379" gradientUnits="userSpaceOnUse">
<stop stop-color="#7B8693"/>
<stop offset="1" stop-color="#656B7C"/>
</linearGradient>
</defs>
</svg>
