<svg width="327" height="303" viewBox="0 0 327 303" fill="none" xmlns="http://www.w3.org/2000/svg">
<g filter="url(#filter0_di_944_3850)">
<path d="M179 67.5C179 31.8776 146.093 3 105.5 3C64.9071 3 32 31.8776 32 67.5C32 103.122 64.9071 132 105.5 132C146.093 132 179 103.122 179 67.5Z" fill="#BFDBFE"/>
<path d="M32.5 67.5C32.5 32.2131 65.1199 3.5 105.5 3.5C145.88 3.5 178.5 32.2131 178.5 67.5C178.5 102.787 145.88 131.5 105.5 131.5C65.1199 131.5 32.5 102.787 32.5 67.5Z" stroke="white" stroke-opacity="0.5"/>
<path d="M288 64.5C288 28.8776 254.198 0 212.5 0C170.803 0 137 28.8776 137 64.5C137 100.122 170.803 129 212.5 129C254.198 129 288 100.122 288 64.5Z" fill="#BFDBFE"/>
<path d="M137.5 64.5C137.5 29.2247 171.002 0.5 212.5 0.5C253.998 0.5 287.5 29.2247 287.5 64.5C287.5 99.7753 253.998 128.5 212.5 128.5C171.002 128.5 137.5 99.7753 137.5 64.5Z" stroke="white" stroke-opacity="0.5"/>
<path d="M151 157.5C151 119.116 118.093 88 77.5 88C36.9071 88 4 119.116 4 157.5C4 195.884 36.9071 227 77.5 227C118.093 227 151 195.884 151 157.5Z" fill="#BFDBFE"/>
<path d="M4.5 157.5C4.5 119.418 37.1565 88.5 77.5 88.5C117.844 88.5 150.5 119.418 150.5 157.5C150.5 195.582 117.844 226.5 77.5 226.5C37.1565 226.5 4.5 195.582 4.5 157.5Z" stroke="white" stroke-opacity="0.5"/>
<path d="M201 228.5C201 191.773 168.093 162 127.5 162C86.9071 162 54 191.773 54 228.5C54 265.227 86.9071 295 127.5 295C168.093 295 201 265.227 201 228.5Z" fill="#BFDBFE"/>
<path d="M54.5 228.5C54.5 192.095 87.135 162.5 127.5 162.5C167.865 162.5 200.5 192.095 200.5 228.5C200.5 264.905 167.865 294.5 127.5 294.5C87.135 294.5 54.5 264.905 54.5 228.5Z" stroke="white" stroke-opacity="0.5"/>
<path d="M284 222.5C284 186.878 251.093 158 210.5 158C169.907 158 137 186.878 137 222.5C137 258.122 169.907 287 210.5 287C251.093 287 284 258.122 284 222.5Z" fill="#BFDBFE"/>
<path d="M137.5 222.5C137.5 187.213 170.12 158.5 210.5 158.5C250.88 158.5 283.5 187.213 283.5 222.5C283.5 257.787 250.88 286.5 210.5 286.5C170.12 286.5 137.5 257.787 137.5 222.5Z" stroke="white" stroke-opacity="0.5"/>
<path d="M323 149C323 111.445 290.093 81 249.5 81C208.907 81 176 111.445 176 149C176 186.555 208.907 217 249.5 217C290.093 217 323 186.555 323 149Z" fill="#BFDBFE"/>
<path d="M176.5 149C176.5 111.757 209.146 81.5 249.5 81.5C289.854 81.5 322.5 111.757 322.5 149C322.5 186.243 289.854 216.5 249.5 216.5C209.146 216.5 176.5 186.243 176.5 149Z" stroke="white" stroke-opacity="0.5"/>
<path d="M235 145.5C235 109.878 202.093 81 161.5 81C120.907 81 88 109.878 88 145.5C88 181.122 120.907 210 161.5 210C202.093 210 235 181.122 235 145.5Z" fill="#BFDBFE"/>
<path d="M282 214C282 178.101 230.96 149 168 149C105.04 149 54 178.101 54 214C54 249.899 105.04 279 168 279C230.96 279 282 249.899 282 214Z" fill="#BFDBFE"/>
<path d="M282 90C282 52.4446 228.05 22 161.5 22C94.9497 22 41 52.4446 41 90C41 127.555 94.9497 158 161.5 158C228.05 158 282 127.555 282 90Z" fill="#BFDBFE"/>
<path d="M165 270C236.797 270 295 215.603 295 148.5C295 81.3974 236.797 27 165 27C93.203 27 35 81.3974 35 148.5C35 215.603 93.203 270 165 270Z" fill="url(#paint0_radial_944_3850)"/>
<path d="M122 122C127.523 122 132 117.523 132 112C132 106.477 127.523 102 122 102C116.477 102 112 106.477 112 112C112 117.523 116.477 122 122 122Z" fill="url(#paint1_linear_944_3850)"/>
<path d="M146 144C147.5 155 182 154.5 184.5 144.5" stroke="url(#paint2_linear_944_3850)" stroke-width="3" stroke-linecap="round"/>
<path d="M202 122C207.523 122 212 117.523 212 112C212 106.477 207.523 102 202 102C196.477 102 192 106.477 192 112C192 117.523 196.477 122 202 122Z" fill="url(#paint3_linear_944_3850)"/>
</g>
<defs>
<filter id="filter0_di_944_3850" x="0" y="0" width="327" height="303" filterUnits="userSpaceOnUse" color-interpolation-filters="sRGB">
<feFlood flood-opacity="0" result="BackgroundImageFix"/>
<feColorMatrix in="SourceAlpha" type="matrix" values="0 0 0 0 0 0 0 0 0 0 0 0 0 0 0 0 0 0 127 0" result="hardAlpha"/>
<feOffset dy="4"/>
<feGaussianBlur stdDeviation="2"/>
<feComposite in2="hardAlpha" operator="out"/>
<feColorMatrix type="matrix" values="0 0 0 0 0.521569 0 0 0 0 0.537255 0 0 0 0 0.54902 0 0 0 0.25 0"/>
<feBlend mode="normal" in2="BackgroundImageFix" result="effect1_dropShadow_944_3850"/>
<feBlend mode="normal" in="SourceGraphic" in2="BackgroundImageFix" result="shape"/>
<feColorMatrix in="SourceAlpha" type="matrix" values="0 0 0 0 0 0 0 0 0 0 0 0 0 0 0 0 0 0 127 0" result="hardAlpha"/>
<feOffset dy="4"/>
<feGaussianBlur stdDeviation="2"/>
<feComposite in2="hardAlpha" operator="arithmetic" k2="-1" k3="1"/>
<feColorMatrix type="matrix" values="0 0 0 0 0.690196 0 0 0 0 0.741176 0 0 0 0 0.780392 0 0 0 0.25 0"/>
<feBlend mode="normal" in2="shape" result="effect2_innerShadow_944_3850"/>
<feBlend mode="normal" in="effect2_innerShadow_944_3850" in2="effect1_dropShadow_944_3850" result="effect2_innerShadow_944_3850"/>
</filter>
<radialGradient id="paint0_radial_944_3850" cx="0" cy="0" r="1" gradientUnits="userSpaceOnUse" gradientTransform="translate(165 148.5) scale(130 121.5)">
<stop stop-color="white" stop-opacity="0.6"/>
<stop offset="1" stop-color="white" stop-opacity="0"/>
</radialGradient>
<linearGradient id="paint1_linear_944_3850" x1="122" y1="102" x2="122" y2="122" gradientUnits="userSpaceOnUse">
<stop stop-color="#7B8693"/>
<stop offset="1" stop-color="#656B7C"/>
</linearGradient>
<linearGradient id="paint2_linear_944_3850" x1="165" y1="139.5" x2="165" y2="154.929" gradientUnits="userSpaceOnUse">
<stop stop-color="#656B7C"/>
<stop offset="1" stop-color="#7B8693"/>
</linearGradient>
<linearGradient id="paint3_linear_944_3850" x1="202" y1="102" x2="202" y2="122" gradientUnits="userSpaceOnUse">
<stop stop-color="#7B8693"/>
<stop offset="1" stop-color="#656B7C"/>
</linearGradient>
</defs>
</svg>
